<svg width="136" height="104" viewBox="0 0 136 104" fill="none" xmlns="http://www.w3.org/2000/svg">
<path d="M55.0606 47.9047C55.0424 47.3386 54.9546 46.7769 54.7993 46.2322C54.6886 45.742 54.5102 45.2695 54.2692 44.8285C50.3119 38.0413 46.25 31.3437 42.1583 24.8552C38.0666 18.3667 33.8853 11.5198 29.801 4.60571C29.4556 4.01746 29.2378 3.36309 29.1619 2.68514C29.086 2.0072 29.1537 1.32087 29.3605 0.670794C29.3605 0.581194 29.4277 0.506531 29.465 0.416931H2.43579C1.80995 0.422836 1.21176 0.675597 0.771311 1.12024C0.330859 1.56489 0.0837725 2.16546 0.0838004 2.79132V16.2313C0.0756996 16.5443 0.133315 16.8555 0.252921 17.1449C0.372526 17.4342 0.551459 17.6953 0.778192 17.9113C0.9958 18.1358 1.25719 18.3133 1.54616 18.4327C1.83514 18.5522 2.14555 18.611 2.45819 18.6057H33.2282C33.5412 18.5976 33.8524 18.6552 34.1418 18.7748C34.4312 18.8944 34.6922 19.0733 34.9082 19.3001C35.1327 19.5177 35.3102 19.779 35.4297 20.068C35.5491 20.357 35.608 20.6674 35.6026 20.98V25.139C35.608 25.4516 35.5491 25.762 35.4297 26.051C35.3102 26.34 35.1327 26.6013 34.9082 26.819C34.6922 27.0457 34.4312 27.2246 34.1418 27.3442C33.8524 27.4638 33.5412 27.5215 33.2282 27.5134H6.39311C6.08074 27.5114 5.7711 27.5714 5.48213 27.6901C5.19316 27.8087 4.93062 27.9835 4.70974 28.2044C4.48886 28.4253 4.31404 28.6878 4.19542 28.9768C4.0768 29.2657 4.01674 29.5754 4.01872 29.8877V43.5368C4.01674 43.8491 4.0768 44.1588 4.19542 44.4477C4.31404 44.7367 4.48886 44.9992 4.70974 45.2201C4.93062 45.441 5.19316 45.6158 5.48213 45.7344C5.7711 45.8531 6.08074 45.9131 6.39311 45.9111H33.2058C33.5188 45.903 33.83 45.9607 34.1194 46.0803C34.4088 46.1999 34.6698 46.3788 34.8858 46.6055C35.1103 46.8232 35.2878 47.0845 35.4073 47.3735C35.5267 47.6625 35.5856 47.9729 35.5802 48.2855V52.0189C35.5856 52.3315 35.5267 52.6419 35.4073 52.9309C35.2878 53.2199 35.1103 53.4812 34.8858 53.6988C34.6698 53.9256 34.4088 54.1045 34.1194 54.2241C33.83 54.3437 33.5188 54.4013 33.2058 54.3932H2.43579C1.80606 54.3932 1.20213 54.6434 0.756841 55.0887C0.311557 55.534 0.0614014 56.1379 0.0614014 56.7676V70.4241C0.0614014 71.0538 0.311557 71.6578 0.756841 72.1031C1.20213 72.5483 1.80606 72.7985 2.43579 72.7985H52.7983C53.1113 72.8066 53.4225 72.749 53.7119 72.6294C54.0012 72.5098 54.2623 72.3308 54.4782 72.1041C54.8012 71.7908 55.0224 71.3876 55.1129 70.9468C55.1129 70.775 55.0606 70.6033 55.0606 70.4241V47.9047Z" fill="#3A99A1"/>
<path d="M2.43574 72.1116C2.2191 72.1167 2.00376 72.0769 1.80328 71.9947C1.6028 71.9124 1.42154 71.7895 1.27094 71.6337C1.11656 71.482 0.994599 71.3006 0.912455 71.1004C0.830311 70.9001 0.789695 70.6853 0.793077 70.4689V56.8124C0.792089 56.5964 0.8339 56.3824 0.916101 56.1827C0.998302 55.9829 1.11927 55.8014 1.272 55.6487C1.42473 55.496 1.60621 55.375 1.80595 55.2928C2.0057 55.2106 2.21974 55.1688 2.43574 55.1698H33.2057C33.6139 55.1708 34.0183 55.0911 34.3956 54.9353C34.7729 54.7796 35.1157 54.5508 35.4043 54.2622C35.6929 53.9736 35.9217 53.6308 36.0774 53.2535C36.2332 52.8762 36.3129 52.4718 36.3119 52.0636V48.3303C36.3129 47.9222 36.2332 47.5178 36.0774 47.1405C35.9217 46.7632 35.6929 46.4204 35.4043 46.1318C35.1157 45.8432 34.7729 45.6144 34.3956 45.4586C34.0183 45.3029 33.6139 45.2232 33.2057 45.2242H6.39305C6.17624 45.2308 5.96048 45.1916 5.7598 45.1092C5.55912 45.0269 5.37801 44.9033 5.22826 44.7463C5.07208 44.596 4.94893 44.4148 4.86665 44.2143C4.78438 44.0137 4.74478 43.7982 4.7504 43.5816V29.9027C4.74941 29.6867 4.79122 29.4726 4.87342 29.2729C4.95562 29.0731 5.07659 28.8917 5.22932 28.7389C5.38205 28.5862 5.56353 28.4652 5.76327 28.383C5.96302 28.3008 6.17706 28.259 6.39305 28.26H33.2057C33.6139 28.261 34.0183 28.1813 34.3956 28.0256C34.7729 27.8698 35.1157 27.6411 35.4043 27.3525C35.6929 27.0638 35.9217 26.721 36.0774 26.3437C36.2332 25.9664 36.3129 25.5621 36.3119 25.1539V20.995C36.3129 20.5868 36.2332 20.1824 36.0774 19.8052C35.9217 19.4279 35.6929 19.085 35.4043 18.7964C35.1157 18.5078 34.7729 18.279 34.3956 18.1233C34.0183 17.9675 33.6139 17.8879 33.2057 17.8889H2.43574C2.21892 17.8954 2.00316 17.8562 1.80248 17.7739C1.6018 17.6916 1.42069 17.5679 1.27094 17.411C1.11513 17.2604 0.99222 17.0791 0.909971 16.8787C0.827723 16.6782 0.787919 16.4628 0.793077 16.2462V2.80625C0.792089 2.59026 0.8339 2.37621 0.916101 2.17646C0.998302 1.97672 1.11927 1.79524 1.272 1.64251C1.42473 1.48978 1.60621 1.36882 1.80595 1.28662C2.0057 1.20442 2.21974 1.1626 2.43574 1.16359H28.4943C28.2615 2.47398 28.4967 3.82451 29.1588 4.97904C33.2655 11.9305 37.4244 18.7475 41.5385 25.2659C45.6526 31.7843 49.6921 38.4445 53.6419 45.2167C53.8471 45.5996 53.9979 46.0093 54.0899 46.4338C54.2308 46.9198 54.3111 47.4214 54.3289 47.9271V70.4913C54.3199 70.643 54.3199 70.7951 54.3289 70.9468C54.2558 71.2062 54.1139 71.4409 53.9182 71.6262C53.7688 71.7841 53.588 71.9089 53.3873 71.9925C53.1867 72.0761 52.9707 72.1167 52.7534 72.1116H2.43574Z" fill="url(#paint0_linear_3_322)"/>
<path d="M100.622 19.315C100.841 19.0899 101.103 18.9121 101.394 18.7927C101.684 18.6732 101.996 18.6147 102.309 18.6206H133.079C133.392 18.626 133.703 18.5671 133.992 18.4477C134.28 18.3282 134.542 18.1508 134.759 17.9262C134.986 17.7103 135.165 17.4492 135.285 17.1598C135.404 16.8705 135.462 16.5592 135.454 16.2462V2.80628C135.454 2.17655 135.204 1.57261 134.758 1.12733C134.313 0.682046 133.709 0.431885 133.079 0.431885H106.11C106.491 1.38015 106.573 2.75401 105.535 4.5908L80.7234 44.724C80.5635 45.0347 80.4263 45.3566 80.3128 45.6872V70.4689C80.3128 71.0987 80.5629 71.7026 81.0082 72.1479C81.4535 72.5932 82.0574 72.8433 82.6872 72.8433H133.05C133.679 72.8433 134.283 72.5932 134.729 72.1479C135.174 71.7026 135.424 71.0987 135.424 70.4689V56.8125C135.424 56.1827 135.174 55.5788 134.729 55.1335C134.283 54.6882 133.679 54.4381 133.05 54.4381H102.309C101.997 54.4401 101.687 54.38 101.399 54.2614C101.11 54.1427 100.847 53.9679 100.626 53.747C100.405 53.5262 100.23 53.2636 100.112 52.9747C99.9932 52.6857 99.9331 52.376 99.9351 52.0637V48.3304C99.9331 48.018 99.9932 47.7083 100.112 47.4194C100.23 47.1304 100.405 46.8679 100.626 46.647C100.847 46.4261 101.11 46.2513 101.399 46.1327C101.687 46.014 101.997 45.954 102.309 45.956H129.122C129.438 45.9581 129.752 45.8966 130.044 45.7752C130.336 45.6538 130.6 45.475 130.822 45.2493C131.043 45.0236 131.217 44.7557 131.333 44.4615C131.449 44.1674 131.505 43.8529 131.497 43.5368V29.9027C131.499 29.5903 131.438 29.2807 131.32 28.9917C131.201 28.7027 131.026 28.4402 130.806 28.2193C130.585 27.9985 130.322 27.8236 130.033 27.705C129.744 27.5864 129.435 27.5263 129.122 27.5283H102.309C101.997 27.5303 101.687 27.4702 101.399 27.3516C101.11 27.233 100.847 27.0582 100.626 26.8373C100.405 26.6164 100.23 26.3539 100.112 26.0649C99.9932 25.7759 99.9331 25.4663 99.9351 25.1539V20.995C99.9301 20.6831 99.9883 20.3734 100.106 20.0846C100.224 19.7959 100.4 19.534 100.622 19.315Z" fill="#3A99A1"/>
<path d="M82.717 72.1116C82.5004 72.1167 82.285 72.0769 82.0846 71.9947C81.8841 71.9124 81.7028 71.7895 81.5522 71.6337C81.3957 71.4837 81.2723 71.3025 81.19 71.1019C81.1077 70.9013 81.0683 70.6857 81.0744 70.4689V45.829C81.1631 45.5738 81.2679 45.3244 81.388 45.0824L106.162 4.94919C106.883 3.81733 107.201 2.47597 107.066 1.1412H133.079C133.296 1.13513 133.512 1.17451 133.712 1.25681C133.913 1.33911 134.094 1.46252 134.244 1.61907C134.4 1.76966 134.523 1.95092 134.605 2.1514C134.688 2.35188 134.727 2.56723 134.722 2.78386V16.2238C134.727 16.4404 134.688 16.6558 134.605 16.8563C134.523 17.0568 134.4 17.238 134.244 17.3886C134.094 17.5452 133.913 17.6686 133.712 17.7509C133.512 17.8332 133.296 17.8725 133.079 17.8665H102.309C101.901 17.8655 101.497 17.9452 101.12 18.1009C100.742 18.2567 100.4 18.4854 100.111 18.774C99.8223 19.0627 99.5935 19.4055 99.4378 19.7828C99.282 20.1601 99.2024 20.5644 99.2034 20.9726V25.1315C99.2024 25.5397 99.282 25.944 99.4378 26.3213C99.5935 26.6986 99.8223 27.0414 100.111 27.3301C100.4 27.6187 100.742 27.8474 101.12 28.0032C101.497 28.1589 101.901 28.2386 102.309 28.2376H129.122C129.339 28.2342 129.553 28.2749 129.754 28.357C129.954 28.4391 130.135 28.5611 130.287 28.7155C130.443 28.8661 130.566 29.0473 130.648 29.2478C130.73 29.4483 130.77 29.6637 130.765 29.8803V43.5368C130.766 43.7528 130.724 43.9668 130.642 44.1665C130.56 44.3663 130.439 44.5478 130.286 44.7005C130.133 44.8532 129.952 44.9742 129.752 45.0564C129.552 45.1386 129.338 45.1804 129.122 45.1794H102.309C101.901 45.1784 101.497 45.2581 101.12 45.4139C100.742 45.5696 100.4 45.7984 100.111 46.087C99.8223 46.3756 99.5935 46.7184 99.4378 47.0957C99.282 47.473 99.2024 47.8774 99.2034 48.2855V52.0189C99.2024 52.427 99.282 52.8314 99.4378 53.2087C99.5935 53.586 99.8223 53.9288 100.111 54.2174C100.4 54.506 100.742 54.7348 101.12 54.8905C101.497 55.0463 101.901 55.126 102.309 55.125H133.079C133.296 55.1189 133.512 55.1583 133.712 55.2406C133.913 55.3229 134.094 55.4463 134.244 55.6029C134.4 55.7534 134.523 55.9347 134.605 56.1352C134.688 56.3357 134.727 56.551 134.722 56.7676V70.4241C134.723 70.6401 134.681 70.8542 134.599 71.0539C134.517 71.2537 134.396 71.4351 134.243 71.5879C134.09 71.7406 133.909 71.8615 133.709 71.9437C133.51 72.026 133.295 72.0678 133.079 72.0668L82.717 72.1116Z" fill="url(#paint1_linear_3_322)"/>
<path d="M78.5432 43.3575C78.1734 44.0504 77.8732 44.7782 77.6472 45.5303C77.4075 46.2665 77.2767 47.0337 77.2589 47.8077V70.4689C77.2643 70.7815 77.2054 71.092 77.086 71.3809C76.9666 71.6699 76.7891 71.9313 76.5645 72.1489C76.3494 72.3747 76.0896 72.5531 75.8016 72.6726C75.5136 72.7922 75.2038 72.8503 74.892 72.8433H60.0259C59.7142 72.8503 59.4044 72.7922 59.1164 72.6726C58.8284 72.5531 58.5685 72.3747 58.3534 72.1489C58.1313 71.9299 57.9559 71.668 57.8378 71.3793C57.7197 71.0905 57.6615 70.7808 57.6665 70.4689V47.9047C57.6459 47.1197 57.5306 46.34 57.323 45.5826C57.1443 44.8368 56.8602 44.1203 56.4793 43.4546C52.4971 36.66 48.4576 29.9972 44.3609 23.4664C40.2642 16.9356 36.1576 10.2156 32.041 3.30651C31.8798 3.03326 31.7784 2.72888 31.7436 2.41351C31.7089 2.09814 31.7415 1.77899 31.8394 1.47718C31.9105 1.19392 32.0787 0.944597 32.3147 0.772668C32.5508 0.600739 32.8397 0.517121 33.1311 0.536391H50.7374C51.4552 0.553547 52.1557 0.759574 52.7684 1.13372C53.4088 1.47775 53.9393 1.99531 54.299 2.62705L66.4249 23.795C66.523 24.0278 66.6876 24.2265 66.8981 24.3662C67.1086 24.5059 67.3557 24.5805 67.6083 24.5805C67.861 24.5805 68.108 24.5059 68.3185 24.3662C68.529 24.2265 68.6937 24.0278 68.7918 23.795L80.8205 2.62705C81.1803 1.99531 81.7108 1.47775 82.3512 1.13372C82.9639 0.759574 83.6644 0.553547 84.3821 0.536391H102.19C102.469 0.515096 102.749 0.568137 103.001 0.690119C103.252 0.8121 103.467 0.998656 103.624 1.23078C103.922 1.69371 103.803 2.38812 103.28 3.30651L78.5432 43.3575Z" fill="#28AEB9"/>
<path d="M60.0259 72.1116C59.8112 72.1106 59.5987 72.0673 59.4007 71.9843C59.2027 71.9012 59.023 71.7799 58.8719 71.6274C58.7207 71.4748 58.6011 71.294 58.5198 71.0953C58.4385 70.8965 58.3972 70.6837 58.3982 70.4689V47.9048C58.3786 47.0562 58.2531 46.2135 58.0249 45.396C57.8346 44.5775 57.5225 43.7922 57.099 43.0664C53.1716 36.3464 49.0873 29.6264 44.9732 23.0782C40.8591 16.5299 36.7599 9.79504 32.6682 2.91827C32.5579 2.73204 32.4895 2.52407 32.4675 2.30877C32.4456 2.09347 32.4708 1.87597 32.5412 1.67134C32.5632 1.53679 32.6377 1.41644 32.7482 1.33667C32.8588 1.2569 32.9965 1.2242 33.1311 1.24575H50.7374C51.3271 1.26104 51.902 1.43376 52.4025 1.74601C52.9271 2.0211 53.3642 2.43751 53.6643 2.94814L65.7902 24.1235C65.9518 24.4671 66.2079 24.7576 66.5286 24.9611C66.8492 25.1646 67.2211 25.2727 67.6008 25.2727C67.9806 25.2727 68.3525 25.1646 68.6731 24.9611C68.9937 24.7576 69.2498 24.4671 69.4115 24.1235L81.4701 2.95561C81.7625 2.4365 82.1945 2.00971 82.717 1.72361C83.2175 1.41137 83.7924 1.23865 84.3821 1.22335H102.19C102.347 1.20167 102.506 1.22366 102.651 1.2869C102.796 1.35014 102.921 1.45217 103.011 1.58174C103.108 1.73108 103.064 2.16414 102.638 2.90334L77.916 42.9469C77.5178 43.6945 77.1952 44.4799 76.9528 45.2914C76.6893 46.0973 76.5459 46.9376 76.5272 47.7853V70.4465C76.5282 70.6619 76.4866 70.8753 76.4049 71.0746C76.3231 71.2738 76.2028 71.455 76.0509 71.6076C75.899 71.7602 75.7184 71.8814 75.5195 71.964C75.3206 72.0466 75.1074 72.0892 74.892 72.0892L60.0259 72.1116Z" fill="#28AEB9"/>
<path d="M103.624 1.20842C103.467 0.976297 103.252 0.789742 103.001 0.667761C102.749 0.545779 102.469 0.492732 102.19 0.514027H84.3821C83.6644 0.531183 82.9639 0.737216 82.3512 1.11136C81.7108 1.45539 81.1803 1.97295 80.8205 2.60469L68.7768 23.7651C68.6787 23.998 68.5141 24.1967 68.3036 24.3364C68.0931 24.4761 67.846 24.5507 67.5934 24.5507C67.3407 24.5507 67.0937 24.4761 66.8832 24.3364C66.6727 24.1967 66.508 23.998 66.4099 23.7651L54.299 2.59722C53.9393 1.96548 53.4088 1.44792 52.7684 1.10389C52.1557 0.729748 51.4552 0.52372 50.7374 0.506564H33.1311C32.8397 0.487294 32.5508 0.570913 32.3147 0.742842C32.0787 0.914771 31.9105 1.1641 31.8394 1.44736C31.7415 1.74916 31.7089 2.06832 31.7436 2.38368C31.7784 2.69905 31.8798 3.00344 32.041 3.27669C36.1327 10.2057 40.2394 16.9257 44.3609 23.4366C48.4825 29.9475 52.522 36.6102 56.4793 43.4248C56.8602 44.0904 57.1443 44.807 57.323 45.5528C57.5306 46.3102 57.6459 47.0899 57.6665 47.8749V70.4391C57.6615 70.751 57.7197 71.0607 57.8378 71.3495C57.9559 71.6382 58.1313 71.9 58.3534 72.1191C58.5685 72.3449 58.8284 72.5233 59.1164 72.6428C59.4044 72.7624 59.7142 72.8205 60.0259 72.8135H74.892C75.2038 72.8205 75.5136 72.7624 75.8016 72.6428C76.0896 72.5233 76.3494 72.3449 76.5645 72.1191C76.7891 71.9015 76.9666 71.6401 77.086 71.3511C77.2054 71.0621 77.2643 70.7517 77.2589 70.4391V47.8077C77.2767 47.0337 77.4075 46.2665 77.6472 45.5304C77.8732 44.7782 78.1734 44.0504 78.5432 43.3576L103.28 3.28415C103.803 2.36575 103.922 1.67136 103.624 1.20842Z" fill="#3A99A1"/>
<path d="M60.0259 72.1116C59.8112 72.1106 59.5987 72.0673 59.4007 71.9843C59.2027 71.9012 59.023 71.7799 58.8719 71.6274C58.7207 71.4748 58.6011 71.294 58.5198 71.0953C58.4385 70.8965 58.3972 70.6837 58.3982 70.4689V47.9048C58.3786 47.0562 58.2531 46.2135 58.0249 45.396C57.8346 44.5775 57.5225 43.7922 57.099 43.0664C53.1716 36.3464 49.0873 29.6264 44.9732 23.0782C40.8591 16.5299 36.7599 9.79504 32.6682 2.91827C32.5579 2.73204 32.4895 2.52407 32.4675 2.30877C32.4456 2.09347 32.4708 1.87597 32.5412 1.67134C32.5632 1.53679 32.6377 1.41644 32.7482 1.33667C32.8588 1.2569 32.9965 1.2242 33.1311 1.24575H50.7374C51.3271 1.26104 51.902 1.43376 52.4025 1.74601C52.9271 2.0211 53.3642 2.43751 53.6643 2.94814L65.7902 24.1235C65.9518 24.4671 66.2079 24.7576 66.5286 24.9611C66.8492 25.1646 67.2211 25.2727 67.6008 25.2727C67.9806 25.2727 68.3525 25.1646 68.6731 24.9611C68.9937 24.7576 69.2498 24.4671 69.4115 24.1235L81.4701 2.95561C81.7625 2.4365 82.1945 2.00971 82.717 1.72361C83.2175 1.41137 83.7924 1.23865 84.3821 1.22335H102.19C102.347 1.20167 102.506 1.22366 102.651 1.2869C102.796 1.35014 102.921 1.45217 103.011 1.58174C103.108 1.73108 103.064 2.16414 102.638 2.90334L77.916 42.9469C77.5178 43.6945 77.1952 44.4799 76.9528 45.2914C76.6893 46.0973 76.5459 46.9376 76.5272 47.7853V70.4465C76.5282 70.6619 76.4866 70.8753 76.4049 71.0746C76.3231 71.2738 76.2028 71.455 76.0509 71.6076C75.899 71.7602 75.7184 71.8814 75.5195 71.964C75.3206 72.0466 75.1074 72.0892 74.892 72.0892L60.0259 72.1116Z" fill="url(#paint2_linear_3_322)"/>
<path d="M40.2916 95.6016C39.5812 95.6036 38.8773 95.4651 38.2205 95.1941C37.5638 94.9232 36.9671 94.525 36.4647 94.0227C35.9623 93.5203 35.5642 92.9236 35.2932 92.2668C35.0223 91.6101 34.8838 90.9062 34.8858 90.1958V82.4529C34.8858 81.0191 35.4553 79.6442 36.4691 78.6304C37.4829 77.6166 38.8579 77.047 40.2916 77.047H60.3918C61.8251 77.0529 63.1982 77.6238 64.2131 78.6359C65.228 79.648 65.8027 81.0196 65.8126 82.4529V90.1958C65.8067 91.6303 65.2332 93.0041 64.2174 94.017C63.2017 95.03 61.8263 95.5997 60.3918 95.6016H40.2916ZM40.2916 80.1457C39.6783 80.1457 39.0899 80.3883 38.6549 80.8205C38.2198 81.2528 37.9734 81.8396 37.9695 82.4529V90.1958C37.9753 90.8098 38.2219 91.3971 38.6561 91.8313C39.0903 92.2655 39.6776 92.5121 40.2916 92.5179H60.3918C60.698 92.5218 61.0018 92.4628 61.2843 92.3447C61.5668 92.2265 61.8221 92.0517 62.0345 91.831C62.2529 91.6189 62.4258 91.3645 62.5426 91.0834C62.6594 90.8022 62.7177 90.5002 62.7139 90.1958V82.4529C62.7139 82.1486 62.6537 81.8474 62.5369 81.5665C62.42 81.2856 62.2487 81.0306 62.0329 80.8161C61.8171 80.6017 61.5609 80.4321 61.2793 80.317C60.9977 80.2019 60.696 80.1437 60.3918 80.1457H40.2916Z" fill="#084F4F"/>
<path d="M75.1085 95.6016C73.6748 95.6016 72.2998 95.0321 71.286 94.0183C70.2722 93.0045 69.7027 91.6295 69.7027 90.1958V82.4529C69.7066 81.0204 70.2774 79.6477 71.2904 78.6347C72.3033 77.6218 73.676 77.051 75.1085 77.047H95.2087C96.6432 77.049 98.0186 77.6187 99.0343 78.6316C100.05 79.6446 100.624 81.0184 100.629 82.4529V90.1958C100.626 91.6309 100.053 93.0058 99.0365 94.0192C98.0203 95.0326 96.6438 95.6016 95.2087 95.6016H75.1085ZM75.1085 80.1457C74.4952 80.1457 73.9068 80.3883 73.4718 80.8205C73.0367 81.2528 72.7903 81.8396 72.7864 82.4529V90.1958C72.7922 90.8098 73.0388 91.3971 73.473 91.8313C73.9072 92.2655 74.4945 92.5121 75.1085 92.5179H95.2087C95.5162 92.5228 95.8213 92.4643 96.1052 92.3461C96.3891 92.228 96.6456 92.0526 96.8588 91.831C97.0759 91.6182 97.2474 91.3636 97.363 91.0825C97.4785 90.8014 97.5356 90.4997 97.5308 90.1958V82.4529C97.5358 82.1462 97.4793 81.8416 97.3644 81.5572C97.2496 81.2728 97.0789 81.0143 96.8623 80.7971C96.6458 80.5798 96.3879 80.4083 96.1038 80.2925C95.8198 80.1768 95.5154 80.1192 95.2087 80.1233L75.1085 80.1457Z" fill="#084F4F"/>
<path d="M109.933 95.6016C109.222 95.6026 108.519 95.4635 107.862 95.1923C107.205 94.921 106.608 94.523 106.106 94.0209C105.603 93.5188 105.204 92.9226 104.932 92.2662C104.66 91.6099 104.52 90.9063 104.52 90.1958V82.4529C104.524 81.0191 105.095 79.6452 106.11 78.6321C107.124 77.6189 108.499 77.049 109.933 77.047H130.003C131.437 77.0529 132.81 77.6238 133.825 78.6359C134.839 79.648 135.414 81.0196 135.424 82.4529V90.1958C135.418 91.6303 134.845 93.0041 133.829 94.017C132.813 95.03 131.438 95.5997 130.003 95.6016H109.933ZM109.933 80.1457C109.32 80.1457 108.731 80.3883 108.296 80.8205C107.861 81.2528 107.615 81.8396 107.611 82.4529V90.1958C107.617 90.8098 107.863 91.3971 108.297 91.8313C108.732 92.2655 109.319 92.5121 109.933 92.5179H130.003C130.618 92.5159 131.208 92.2706 131.643 91.8356C132.078 91.4005 132.323 90.811 132.325 90.1958V82.4529C132.328 82.1467 132.27 81.8431 132.155 81.5596C132.039 81.2761 131.868 81.0184 131.652 80.8016C131.436 80.5848 131.179 80.4132 130.896 80.2967C130.613 80.1802 130.309 80.1213 130.003 80.1233L109.933 80.1457Z" fill="#084F4F"/>
<path d="M29.3978 86.3654C28.9025 85.8539 28.3079 85.449 27.6505 85.1755C26.9931 84.902 26.2868 84.7657 25.5749 84.775H3.17496V80.1233H27.7103V82.2886H30.2415V77.0246H0.0837708V87.8513H25.5973C25.9027 87.8482 26.2057 87.9063 26.4883 88.022C26.771 88.1377 27.0277 88.3088 27.2433 88.5251C27.459 88.7415 27.6292 88.9987 27.744 89.2818C27.8588 89.5648 27.9159 89.868 27.9119 90.1734C27.9119 90.7879 27.6683 91.3775 27.2344 91.8127C26.8006 92.248 26.2118 92.4935 25.5973 92.4955H0.0837708V95.5792H25.5973C26.6697 95.5845 27.7194 95.2702 28.6125 94.6764C29.5056 94.0827 30.2016 93.2364 30.6117 92.2455C31.0219 91.2545 31.1276 90.1639 30.9154 89.1126C30.7032 88.0614 30.1826 87.0972 29.4202 86.343L29.3978 86.3654Z" fill="#084F4F"/>
<path d="M0.0837524 98.551C0.068925 98.51 0.068925 98.4651 0.0837524 98.424C0.0934552 98.4071 0.107685 98.3933 0.124836 98.3841C0.141987 98.3748 0.16138 98.3706 0.180822 98.3718H1.21121C1.25525 98.3721 1.29816 98.3859 1.33418 98.4112C1.3702 98.4366 1.39763 98.4723 1.41281 98.5136L2.15948 100.619C2.15948 100.657 2.19681 100.679 2.22667 100.679C2.25654 100.679 2.27895 100.679 2.29388 100.619L2.98827 98.5136C3.00348 98.4728 3.02925 98.4367 3.06294 98.4091C3.10121 98.3857 3.14501 98.3728 3.18988 98.3718H4.0336C4.07846 98.3728 4.12227 98.3857 4.16054 98.4091C4.19423 98.4367 4.21999 98.4728 4.2352 98.5136L4.9296 100.627C4.9296 100.672 4.952 100.694 4.9968 100.694C4.9968 100.694 5.04906 100.694 5.07146 100.627L5.81812 98.5136C5.83429 98.4713 5.86293 98.4348 5.90026 98.4091C5.93852 98.3857 5.98233 98.3728 6.0272 98.3718H7.05013C7.10239 98.3718 7.13226 98.3718 7.1472 98.424C7.16173 98.46 7.16173 98.5001 7.1472 98.536L5.65387 102.852C5.63965 102.895 5.61056 102.932 5.57173 102.956C5.53581 102.985 5.49099 103.001 5.44479 103.001H4.56373C4.51732 103.002 4.47207 102.986 4.4368 102.956C4.41768 102.945 4.40114 102.93 4.38827 102.912C4.3754 102.894 4.36649 102.873 4.36213 102.852L3.66027 100.746C3.65842 100.73 3.65054 100.714 3.63813 100.703C3.62572 100.692 3.60967 100.686 3.59307 100.686C3.59307 100.686 3.5408 100.686 3.53333 100.746L2.83147 102.852C2.82711 102.873 2.8182 102.894 2.80533 102.912C2.79246 102.93 2.77593 102.945 2.75681 102.956C2.72154 102.986 2.67629 103.002 2.62988 103.001H1.81602C1.76982 103.001 1.725 102.985 1.68907 102.956C1.6566 102.929 1.63316 102.893 1.62188 102.852L0.0837524 98.551Z" fill="#B3B3B3"/>
<path d="M8.73756 98.5136C8.75659 98.4727 8.78792 98.4388 8.82717 98.4165C8.86544 98.3931 8.90924 98.3802 8.9541 98.3792H9.84263C9.88559 98.3799 9.92742 98.393 9.96316 98.4168C9.99891 98.4406 10.027 98.4742 10.0442 98.5136L11.896 102.814C11.9052 102.833 11.91 102.853 11.91 102.874C11.91 102.895 11.9052 102.915 11.896 102.934C11.8803 102.957 11.8589 102.975 11.834 102.986C11.8091 102.998 11.7816 103.003 11.7541 103.001H10.6789C10.6304 103.001 10.5833 102.985 10.5445 102.956C10.5072 102.932 10.4765 102.898 10.4549 102.859L10.2832 102.486C10.2616 102.445 10.231 102.409 10.1936 102.381C10.1549 102.359 10.1113 102.346 10.0666 102.344H8.7301C8.68523 102.345 8.64144 102.358 8.60317 102.381C8.56585 102.407 8.53721 102.444 8.52104 102.486L8.34183 102.859C8.3248 102.901 8.29294 102.936 8.25224 102.956C8.21891 102.985 8.17662 103.001 8.13277 103.001H7.04265H6.97544C6.95525 102.993 6.93733 102.98 6.92318 102.964C6.91915 102.944 6.91915 102.924 6.92318 102.904C6.91229 102.875 6.91229 102.843 6.92318 102.814L8.73756 98.5136ZM9.1109 101.269H9.67837C9.69586 101.269 9.71322 101.266 9.72887 101.258C9.74453 101.25 9.75797 101.238 9.76796 101.224C9.77729 101.21 9.78225 101.193 9.78225 101.175C9.78225 101.158 9.77729 101.141 9.76796 101.127C9.73063 101.022 9.67837 100.903 9.61863 100.761L9.45437 100.365C9.45437 100.328 9.45437 100.306 9.39463 100.306C9.3349 100.306 9.35729 100.306 9.34236 100.365L9.0213 101.112C9.01402 101.127 9.01024 101.144 9.01024 101.161C9.01024 101.177 9.01402 101.194 9.0213 101.209C9.03001 101.226 9.04279 101.24 9.05845 101.25C9.07411 101.261 9.09215 101.267 9.1109 101.269Z" fill="#B3B3B3"/>
<path d="M15.2709 99.5365H14.3899C14.3691 99.5358 14.3484 99.5394 14.3292 99.5471C14.3099 99.5548 14.2924 99.5665 14.2779 99.5813C14.2632 99.5944 14.2516 99.6106 14.2439 99.6286C14.2361 99.6467 14.2324 99.6662 14.2331 99.6859V102.852C14.2435 102.886 14.2435 102.922 14.2331 102.956C14.2185 102.971 14.2011 102.983 14.1818 102.99C14.1625 102.998 14.1418 103.002 14.1211 103.001H13.1728C13.1521 103.002 13.1314 102.998 13.1121 102.99C13.0928 102.983 13.0753 102.971 13.0608 102.956C13.0376 102.926 13.0245 102.89 13.0235 102.852V99.6859C13.0241 99.6662 13.0204 99.6467 13.0127 99.6286C13.0049 99.6106 12.9933 99.5944 12.9787 99.5813C12.9642 99.5665 12.9467 99.5548 12.9274 99.5471C12.9081 99.5394 12.8874 99.5358 12.8667 99.5365H11.9707C11.951 99.5377 11.9313 99.5343 11.9131 99.5265C11.895 99.5187 11.8789 99.5068 11.8661 99.4917C11.8513 99.4772 11.8396 99.4597 11.8319 99.4405C11.8242 99.4212 11.8206 99.4005 11.8214 99.3797V98.5211C11.8219 98.4817 11.838 98.4441 11.8661 98.4165C11.8789 98.4015 11.895 98.3896 11.9131 98.3818C11.9313 98.374 11.951 98.3706 11.9707 98.3717H15.3083C15.329 98.371 15.3497 98.3746 15.369 98.3823C15.3883 98.39 15.4057 98.4017 15.4203 98.4165C15.4484 98.4441 15.4645 98.4817 15.4651 98.5211V99.3797C15.4651 99.4213 15.4486 99.4612 15.4191 99.4906C15.3897 99.52 15.3499 99.5365 15.3083 99.5365H15.2709Z" fill="#B3B3B3"/>
<path d="M20.505 101.777C20.3827 101.964 20.248 102.144 20.1018 102.314C19.9543 102.473 19.7861 102.611 19.6016 102.725C19.4108 102.84 19.2047 102.928 18.9893 102.986C18.7465 103.055 18.4949 103.088 18.2426 103.083C17.9175 103.083 17.5955 103.019 17.2944 102.897C17.0174 102.77 16.7647 102.595 16.5477 102.381C16.3287 102.167 16.1515 101.914 16.025 101.635C15.9024 101.341 15.839 101.027 15.8384 100.709C15.839 100.388 15.9024 100.071 16.025 99.7755C16.1489 99.4949 16.3265 99.2412 16.5477 99.0288C16.7647 98.8149 17.0174 98.6405 17.2944 98.5136C17.5944 98.3875 17.9171 98.3239 18.2426 98.327C18.4943 98.3248 18.7453 98.3549 18.9893 98.4166C19.202 98.4787 19.4054 98.5691 19.5941 98.6854C19.7776 98.7973 19.9437 98.9357 20.0869 99.096C20.2331 99.2661 20.3678 99.4457 20.4901 99.6336C20.4993 99.6495 20.5041 99.6675 20.5041 99.6859C20.5041 99.7042 20.4993 99.7223 20.4901 99.7381C20.4852 99.7569 20.4759 99.7741 20.4629 99.7884C20.4499 99.8027 20.4336 99.8137 20.4154 99.8203L19.5194 100.179C19.4784 100.194 19.4335 100.194 19.3925 100.179C19.3532 100.164 19.3193 100.138 19.2954 100.104C19.1865 99.9216 19.0354 99.768 18.8549 99.656C18.6644 99.5467 18.4472 99.4925 18.2277 99.4992C18.0724 99.5001 17.9193 99.5358 17.7797 99.6037C17.4965 99.7352 17.2746 99.9704 17.16 100.261C17.0408 100.555 17.0408 100.885 17.16 101.179C17.2189 101.32 17.3023 101.449 17.4064 101.56C17.5127 101.672 17.6394 101.764 17.7797 101.829C17.9198 101.894 18.073 101.928 18.2277 101.926C18.4431 101.927 18.6552 101.873 18.8435 101.768C19.0319 101.663 19.1901 101.512 19.3029 101.329C19.3231 101.294 19.3548 101.268 19.3925 101.254C19.4335 101.239 19.4784 101.239 19.5194 101.254L20.4154 101.605C20.4336 101.611 20.4499 101.622 20.4629 101.637C20.4759 101.651 20.4852 101.668 20.4901 101.687C20.5067 101.714 20.512 101.746 20.505 101.777Z" fill="#B3B3B3"/>
<path d="M25.4703 98.5211V102.852C25.4807 102.886 25.4807 102.922 25.4703 102.956C25.4558 102.971 25.4383 102.983 25.419 102.99C25.3998 102.998 25.3791 103.002 25.3583 103.001H24.4101C24.3893 103.002 24.3686 102.998 24.3493 102.99C24.33 102.983 24.3126 102.971 24.298 102.956C24.2877 102.922 24.2877 102.886 24.298 102.852V101.493C24.2975 101.453 24.2814 101.416 24.2532 101.388C24.2387 101.373 24.2213 101.362 24.202 101.354C24.1827 101.346 24.162 101.343 24.1413 101.343H22.7823C22.7615 101.342 22.7407 101.346 22.7213 101.353C22.702 101.361 22.6846 101.373 22.6703 101.388C22.6422 101.416 22.6261 101.453 22.6255 101.493V102.852C22.625 102.891 22.6089 102.929 22.5807 102.956C22.5676 102.971 22.5515 102.983 22.5334 102.99C22.5154 102.998 22.4958 103.002 22.4762 103.001H21.5279C21.5072 103.002 21.4865 102.998 21.4672 102.99C21.4479 102.983 21.4305 102.971 21.4159 102.956C21.4055 102.922 21.4055 102.886 21.4159 102.852V98.5211C21.4055 98.487 21.4055 98.4506 21.4159 98.4165C21.4305 98.4017 21.4479 98.39 21.4672 98.3823C21.4865 98.3746 21.5072 98.371 21.5279 98.3717H22.4837C22.5033 98.3711 22.5228 98.3748 22.5409 98.3825C22.559 98.3903 22.5751 98.4019 22.5882 98.4165C22.6163 98.4441 22.6324 98.4817 22.633 98.5211V100.014C22.6323 100.035 22.6359 100.056 22.6436 100.075C22.6513 100.094 22.6629 100.112 22.6778 100.126C22.6924 100.141 22.7101 100.152 22.7295 100.158C22.7489 100.164 22.7695 100.166 22.7898 100.164H24.0815C24.1017 100.165 24.1221 100.163 24.1414 100.157C24.1606 100.15 24.1784 100.14 24.1935 100.126C24.2084 100.112 24.22 100.094 24.2277 100.075C24.2354 100.056 24.2391 100.035 24.2383 100.014V98.5211C24.2279 98.487 24.2279 98.4506 24.2383 98.4165C24.2528 98.4017 24.2703 98.39 24.2896 98.3823C24.3089 98.3746 24.3296 98.371 24.3503 98.3717H25.2986C25.3193 98.371 25.34 98.3746 25.3593 98.3823C25.3786 98.39 25.3961 98.4017 25.4106 98.4165C25.4419 98.4434 25.4631 98.4804 25.4703 98.5211Z" fill="#B3B3B3"/>
<path d="M30.8836 102.859L28.9722 98.5509C28.9609 98.5331 28.9549 98.5124 28.9549 98.4912C28.9549 98.4701 28.9609 98.4494 28.9722 98.4315C28.9722 98.3867 29.0244 98.3717 29.0767 98.3717H30.1071C30.152 98.3727 30.1958 98.3856 30.234 98.4091C30.2714 98.4367 30.3021 98.4724 30.3236 98.5136L31.4436 101.03C31.4511 101.046 31.4626 101.06 31.4769 101.07C31.4913 101.081 31.5081 101.087 31.5257 101.09C31.5439 101.089 31.5614 101.083 31.5761 101.072C31.5908 101.062 31.6018 101.047 31.6079 101.03L32.7204 98.4912C32.7394 98.4483 32.7705 98.412 32.81 98.3867C32.846 98.3642 32.8871 98.3513 32.9295 98.3493H33.9823C34.0028 98.3476 34.0234 98.3515 34.0419 98.3608C34.0603 98.37 34.0759 98.3841 34.0868 98.4016C34.096 98.4175 34.1008 98.4355 34.1008 98.4539C34.1008 98.4722 34.096 98.4902 34.0868 98.5061L32.1604 102.837C32.1388 102.876 32.1081 102.909 32.0708 102.934C32.0343 102.962 31.9899 102.978 31.9439 102.979H31.1076C31.0616 102.978 31.0172 102.962 30.9807 102.934C30.9431 102.917 30.91 102.891 30.8836 102.859Z" fill="#B3B3B3"/>
<path d="M35.9684 103.001H35.0202C34.9994 103.002 34.9787 102.998 34.9594 102.99C34.9402 102.983 34.9227 102.971 34.9082 102.956C34.8949 102.923 34.8949 102.885 34.9082 102.852V98.5285C34.9007 98.5121 34.8969 98.4943 34.8969 98.4763C34.8969 98.4583 34.9007 98.4404 34.9082 98.424C34.9227 98.4092 34.9402 98.3975 34.9594 98.3898C34.9787 98.3821 34.9994 98.3785 35.0202 98.3792H35.9684C36.0074 98.381 36.0444 98.3973 36.072 98.425C36.0996 98.4526 36.1159 98.4895 36.1178 98.5285V102.852C36.1172 102.891 36.1011 102.929 36.073 102.956C36.0599 102.971 36.0437 102.983 36.0257 102.99C36.0076 102.998 35.9881 103.002 35.9684 103.001Z" fill="#B3B3B3"/>
<path d="M37.3572 102.852V98.5211C37.3578 98.4817 37.3739 98.4441 37.402 98.4165C37.4166 98.4017 37.434 98.39 37.4533 98.3823C37.4726 98.3746 37.4933 98.371 37.514 98.3717H39.2388C39.8363 98.3484 40.4196 98.5571 40.8665 98.9541C41.0901 99.1629 41.2659 99.4177 41.3817 99.7008C41.5054 100.012 41.5663 100.344 41.561 100.679C41.5655 101.016 41.5047 101.351 41.3817 101.665C41.2659 101.948 41.0901 102.202 40.8665 102.411C40.6468 102.599 40.3935 102.743 40.1199 102.837C39.8295 102.938 39.5239 102.988 39.2164 102.986H37.4916C37.4709 102.987 37.4502 102.983 37.4309 102.976C37.4116 102.968 37.3942 102.956 37.3796 102.941C37.3629 102.915 37.355 102.883 37.3572 102.852ZM38.761 101.836H39.2388C39.3621 101.836 39.4849 101.821 39.6047 101.791C39.73 101.763 39.8474 101.707 39.9482 101.627C40.0552 101.53 40.1394 101.41 40.1946 101.276C40.267 101.091 40.3 100.893 40.2916 100.694C40.2994 100.493 40.2663 100.292 40.1946 100.104C40.1394 99.9704 40.0522 99.8525 39.9407 99.7605C39.8422 99.6801 39.7276 99.6215 39.6047 99.5888C39.4849 99.5597 39.3621 99.5446 39.2388 99.544H38.761C38.7216 99.5446 38.684 99.5607 38.6564 99.5888C38.6416 99.6033 38.6299 99.6208 38.6222 99.6401C38.6145 99.6594 38.6109 99.68 38.6116 99.7008V101.687C38.6135 101.726 38.6298 101.763 38.6574 101.791C38.685 101.818 38.7219 101.834 38.761 101.836Z" fill="#B3B3B3"/>
<path d="M43.7487 99.6859V99.9547C43.7505 99.9937 43.7668 100.031 43.7944 100.058C43.8221 100.086 43.859 100.102 43.898 100.104H45.6303C45.6693 100.106 45.7062 100.122 45.7339 100.15C45.7615 100.177 45.7778 100.214 45.7796 100.253V101.127C45.7803 101.148 45.7767 101.168 45.769 101.188C45.7613 101.207 45.7497 101.224 45.7348 101.239C45.7072 101.267 45.6697 101.283 45.6303 101.284H43.9129C43.8789 101.273 43.8425 101.273 43.8084 101.284C43.7936 101.298 43.7819 101.316 43.7742 101.335C43.7665 101.354 43.7629 101.375 43.7636 101.396V101.635C43.7624 101.654 43.7659 101.674 43.7737 101.692C43.7814 101.71 43.7933 101.726 43.8084 101.739C43.836 101.767 43.8736 101.783 43.9129 101.784H45.8841C45.9235 101.785 45.9611 101.801 45.9887 101.829C46.0035 101.843 46.0152 101.861 46.0229 101.88C46.0306 101.899 46.0342 101.92 46.0335 101.941V102.814C46.0317 102.853 46.0153 102.89 45.9877 102.918C45.9601 102.946 45.9232 102.962 45.8841 102.964H42.6436C42.6046 102.962 42.5677 102.946 42.54 102.918C42.5124 102.89 42.4961 102.853 42.4943 102.814V98.4837C42.4961 98.4447 42.5124 98.4078 42.54 98.3802C42.5677 98.3525 42.6046 98.3362 42.6436 98.3344H45.8692C45.9082 98.3362 45.9452 98.3525 45.9728 98.3802C46.0004 98.4078 46.0167 98.4447 46.0185 98.4837V99.3424C46.0193 99.3632 46.0157 99.3839 46.008 99.4031C46.0002 99.4224 45.9886 99.4399 45.9737 99.4544C45.9462 99.4825 45.9086 99.4986 45.8692 99.4992H43.898C43.8586 99.4998 43.8211 99.5159 43.7935 99.544C43.7729 99.5606 43.7576 99.5829 43.7497 99.6082C43.7417 99.6334 43.7414 99.6604 43.7487 99.6859Z" fill="#B3B3B3"/>
<path d="M46.9966 100.686C46.9961 100.365 47.0622 100.047 47.1908 99.7531C47.4305 99.1778 47.8862 98.7194 48.4601 98.4763C48.7546 98.3533 49.0706 98.2899 49.3897 98.2899C49.7088 98.2899 50.0248 98.3533 50.3193 98.4763C50.8933 98.7218 51.3506 99.1791 51.5961 99.7531C51.7247 100.047 51.7908 100.365 51.7902 100.686C51.7908 101.005 51.7247 101.321 51.5961 101.612C51.4699 101.89 51.2954 102.142 51.0809 102.359C50.8663 102.576 50.613 102.75 50.3342 102.874C50.0398 102.997 49.7238 103.06 49.4046 103.06C49.0855 103.06 48.7695 102.997 48.475 102.874C48.1962 102.75 47.943 102.576 47.7284 102.359C47.5161 102.142 47.3442 101.889 47.2206 101.612C47.0818 101.323 47.0054 101.007 46.9966 100.686ZM48.251 100.686C48.2504 100.843 48.2809 100.997 48.3406 101.142C48.4496 101.427 48.667 101.658 48.9454 101.784C49.0849 101.848 49.2364 101.881 49.3897 101.881C49.543 101.881 49.6946 101.848 49.834 101.784C49.969 101.717 50.0925 101.629 50.1998 101.523C50.3039 101.411 50.3873 101.282 50.4462 101.142C50.506 100.997 50.5364 100.843 50.5358 100.686C50.5357 100.53 50.5052 100.376 50.4462 100.231C50.389 100.092 50.3053 99.965 50.1998 99.8576C50.0945 99.7493 49.9706 99.6608 49.834 99.5963C49.6946 99.5325 49.543 99.4995 49.3897 99.4995C49.2364 99.4995 49.0849 99.5325 48.9454 99.5963C48.8088 99.6608 48.6849 99.7493 48.5796 99.8576C48.4788 99.9672 48.3979 100.094 48.3406 100.231C48.2817 100.376 48.2512 100.53 48.251 100.686Z" fill="#B3B3B3"/>
<path d="M53.3433 101.411C53.5553 101.554 53.7833 101.672 54.0228 101.762C54.2201 101.841 54.43 101.884 54.6425 101.889C54.7889 101.896 54.9349 101.868 55.0681 101.806C55.1126 101.786 55.1504 101.754 55.1769 101.713C55.2034 101.672 55.2175 101.624 55.2174 101.575C55.2191 101.549 55.2138 101.522 55.202 101.499C55.1902 101.475 55.1723 101.455 55.1502 101.441C55.1007 101.405 55.045 101.38 54.986 101.366C54.9061 101.339 54.8234 101.322 54.7396 101.314L54.4558 101.261L54.1273 101.202C53.9982 101.175 53.871 101.14 53.7465 101.097C53.6132 101.052 53.4835 100.997 53.3582 100.933C53.2301 100.865 53.114 100.777 53.0148 100.671C52.9093 100.564 52.8256 100.437 52.7684 100.298C52.706 100.134 52.6756 99.9588 52.6788 99.7829C52.6668 99.523 52.7262 99.2648 52.8505 99.0363C52.9566 98.8542 53.1052 98.7005 53.2836 98.5883C53.4609 98.4726 53.6585 98.3916 53.866 98.3493C54.0722 98.3056 54.2824 98.2831 54.4932 98.2821C54.8185 98.2777 55.142 98.3308 55.4489 98.4389C55.7388 98.5499 56.0106 98.7034 56.2553 98.8944C56.2855 98.9212 56.3043 98.9587 56.3076 98.9989C56.3152 99.0166 56.3191 99.0357 56.3191 99.0549C56.3191 99.0742 56.3152 99.0932 56.3076 99.1109L55.8148 99.8128C55.7901 99.848 55.7525 99.8722 55.7102 99.88C55.6742 99.8938 55.6343 99.8938 55.5982 99.88C55.4127 99.7573 55.2118 99.6594 55.0009 99.5888C54.8345 99.5346 54.6607 99.5069 54.4857 99.5067H54.3214C54.2645 99.4989 54.2067 99.4989 54.1497 99.5067C54.1004 99.5224 54.0547 99.5477 54.0153 99.5813C53.9972 99.6 53.9832 99.6223 53.9742 99.6467C53.9652 99.6712 53.9614 99.6972 53.963 99.7232C53.963 99.7829 54.0078 99.8352 54.09 99.88C54.1891 99.9268 54.2914 99.9667 54.3961 99.9995L54.7246 100.082H54.9262C55.0958 100.115 55.2629 100.16 55.4265 100.216C55.6072 100.272 55.7783 100.355 55.9342 100.462C56.0981 100.579 56.2354 100.729 56.3374 100.903C56.4486 101.109 56.5028 101.341 56.4942 101.575C56.4983 101.8 56.4551 102.024 56.3673 102.232C56.281 102.409 56.1529 102.563 55.994 102.68C55.8236 102.805 55.631 102.896 55.4265 102.949C55.1816 103.005 54.9311 103.033 54.6798 103.031C54.4745 103.033 54.2695 103.016 54.0676 102.979C53.8874 102.942 53.7102 102.892 53.5374 102.829C53.3782 102.765 53.2236 102.69 53.0745 102.605C52.9397 102.521 52.81 102.429 52.6862 102.329C52.6698 102.317 52.6565 102.301 52.6474 102.283C52.6383 102.265 52.6337 102.245 52.634 102.225C52.6253 102.206 52.6208 102.185 52.6208 102.165C52.6208 102.144 52.6253 102.124 52.634 102.105L53.1193 101.403C53.1453 101.371 53.1827 101.349 53.2238 101.343C53.2705 101.351 53.313 101.374 53.3433 101.411Z" fill="#B3B3B3"/>
<path d="M61.0638 102.396C61.0651 102.484 61.0473 102.57 61.0115 102.65C60.9829 102.727 60.9369 102.796 60.8771 102.852C60.8188 102.914 60.7474 102.962 60.668 102.994C60.5879 103.028 60.5015 103.046 60.4142 103.046C60.3269 103.046 60.2405 103.028 60.1603 102.994C60.0843 102.96 60.0157 102.912 59.9587 102.852C59.8991 102.794 59.851 102.726 59.8168 102.65C59.7873 102.569 59.7722 102.483 59.772 102.396C59.771 102.312 59.7863 102.228 59.8168 102.15C59.849 102.073 59.8974 102.004 59.9587 101.948C60.0157 101.888 60.0843 101.84 60.1603 101.806C60.2405 101.772 60.3269 101.754 60.4142 101.754C60.5015 101.754 60.5879 101.772 60.668 101.806C60.7474 101.838 60.8188 101.886 60.8771 101.948C60.9385 102.003 60.9848 102.072 61.0115 102.15C61.0482 102.227 61.0661 102.311 61.0638 102.396Z" fill="#B3B3B3"/>
<path d="M62.9155 102.396C62.913 102.483 62.8953 102.569 62.8632 102.65C62.8291 102.726 62.781 102.794 62.7214 102.852C62.6631 102.914 62.5917 102.962 62.5123 102.994C62.4325 103.029 62.3459 103.047 62.2585 103.046C62.1733 103.048 62.0889 103.03 62.0121 102.994C61.9327 102.962 61.8613 102.914 61.803 102.852C61.7432 102.796 61.6972 102.727 61.6686 102.65C61.6328 102.57 61.615 102.484 61.6163 102.396C61.614 102.311 61.6319 102.227 61.6686 102.15C61.6953 102.072 61.7416 102.003 61.803 101.948C61.8613 101.886 61.9327 101.838 62.0121 101.806C62.0889 101.77 62.1733 101.752 62.2585 101.754C62.3459 101.753 62.4325 101.771 62.5123 101.806C62.6672 101.874 62.792 101.996 62.8632 102.15C62.8964 102.228 62.9141 102.312 62.9155 102.396Z" fill="#B3B3B3"/>
<path d="M64.7598 102.396C64.7611 102.484 64.7433 102.57 64.7075 102.65C64.676 102.727 64.6275 102.796 64.5656 102.852C64.5086 102.915 64.4368 102.964 64.3566 102.994C64.2795 103.029 64.1952 103.047 64.1102 103.046C64.0228 103.047 63.9361 103.029 63.8563 102.994C63.7803 102.96 63.7117 102.912 63.6547 102.852C63.5951 102.794 63.547 102.726 63.5129 102.65C63.4771 102.57 63.4592 102.484 63.4606 102.396C63.4583 102.311 63.4762 102.227 63.5129 102.15C63.545 102.073 63.5934 102.004 63.6547 101.948C63.7117 101.888 63.7803 101.84 63.8563 101.806C63.9361 101.771 64.0228 101.753 64.1102 101.754C64.1952 101.753 64.2795 101.77 64.3566 101.806C64.4368 101.836 64.5086 101.885 64.5656 101.948C64.6293 102.002 64.6781 102.072 64.7075 102.15C64.7442 102.227 64.7621 102.311 64.7598 102.396Z" fill="#B3B3B3"/>
<path d="M69.9341 98.5211V102.852C69.9323 102.891 69.916 102.928 69.8884 102.955C69.8608 102.983 69.8238 102.999 69.7848 103.001H68.844C68.8022 103.01 68.7589 103.01 68.7171 103.001C68.6752 102.977 68.6374 102.947 68.6051 102.911L66.9624 100.589C66.9624 100.589 66.9101 100.545 66.8803 100.552C66.8504 100.559 66.8429 100.552 66.8429 100.619V102.859C66.8424 102.899 66.8263 102.936 66.7981 102.964C66.7836 102.979 66.7662 102.99 66.7469 102.998C66.7276 103.006 66.7069 103.009 66.6861 103.009H65.7379C65.6989 103.007 65.6619 102.99 65.6343 102.963C65.6067 102.935 65.5904 102.898 65.5885 102.859V98.5285C65.5904 98.4895 65.6067 98.4526 65.6343 98.425C65.6619 98.3973 65.6989 98.381 65.7379 98.3792H66.6861C66.7337 98.3775 66.7807 98.3906 66.8205 98.4165C66.8627 98.4331 66.899 98.4617 66.9251 98.4987L68.5752 100.821C68.5837 100.833 68.5948 100.844 68.6076 100.851C68.6205 100.859 68.6349 100.864 68.6499 100.866C68.6499 100.866 68.6947 100.866 68.6947 100.791V98.5509C68.6952 98.5115 68.7113 98.474 68.7395 98.4464C68.7526 98.4317 68.7687 98.4201 68.7868 98.4124C68.8048 98.4047 68.8244 98.401 68.844 98.4016H69.7848C69.8238 98.4034 69.8608 98.4197 69.8884 98.4474C69.916 98.475 69.9323 98.5119 69.9341 98.5509V98.5211Z" fill="#B3B3B3"/>
<path d="M70.9123 100.686C70.9117 100.365 70.9778 100.047 71.1064 99.7531C71.3462 99.1778 71.8019 98.7194 72.3757 98.4763C72.6679 98.35 72.9833 98.2864 73.3016 98.2896C73.6223 98.2865 73.9401 98.3501 74.2349 98.4763C74.8089 98.7218 75.2662 99.1791 75.5117 99.7531C75.6379 100.048 75.7015 100.366 75.6984 100.686C75.7015 101.005 75.6379 101.32 75.5117 101.612C75.3855 101.89 75.2111 102.142 74.9965 102.359C74.7749 102.583 74.5109 102.76 74.2198 102.881C73.9288 103.001 73.6166 103.062 73.3016 103.061C72.9837 103.06 72.669 102.997 72.3757 102.874C72.0969 102.75 71.8437 102.576 71.6291 102.359C71.4168 102.142 71.2449 101.889 71.1213 101.612C70.9876 101.322 70.9164 101.006 70.9123 100.686ZM72.1667 100.686C72.1661 100.843 72.1965 100.997 72.2563 101.142C72.3125 101.282 72.3934 101.411 72.4952 101.523C72.6011 101.63 72.7249 101.719 72.8611 101.784C72.9986 101.849 73.1493 101.883 73.3016 101.881C73.4563 101.883 73.6094 101.85 73.7496 101.784C73.8847 101.717 74.0082 101.629 74.1154 101.523C74.2195 101.411 74.303 101.282 74.3619 101.142C74.4216 100.997 74.452 100.843 74.4515 100.686C74.4513 100.53 74.4209 100.376 74.3619 100.231C74.3046 100.092 74.2209 99.9649 74.1154 99.8576C74.0101 99.7493 73.8862 99.6608 73.7496 99.5963C73.6094 99.5307 73.4563 99.4975 73.3016 99.4992C73.1493 99.4976 72.9986 99.5308 72.8611 99.5963C72.7234 99.659 72.5991 99.7477 72.4952 99.8576C72.3919 99.9652 72.3108 100.092 72.2563 100.231C72.1973 100.376 72.1668 100.53 72.1667 100.686Z" fill="#B3B3B3"/>
<path d="M79.693 99.5365H78.8045C78.7651 99.5371 78.7276 99.5532 78.7 99.5813C78.6853 99.5944 78.6737 99.6106 78.666 99.6286C78.6582 99.6467 78.6546 99.6662 78.6552 99.6859V102.852C78.6546 102.891 78.6385 102.929 78.6104 102.956C78.5976 102.971 78.5815 102.983 78.5634 102.991C78.5453 102.999 78.5255 103.002 78.5058 103.001H77.5576C77.5368 103.002 77.5161 102.998 77.4969 102.99C77.4776 102.983 77.4601 102.971 77.4456 102.956C77.4174 102.929 77.4013 102.891 77.4008 102.852V99.6859C77.4008 99.6477 77.3876 99.6108 77.3634 99.5813C77.3489 99.5665 77.3315 99.5548 77.3122 99.5471C77.2929 99.5394 77.2722 99.5358 77.2515 99.5365H76.3554C76.3139 99.5365 76.274 99.52 76.2446 99.4906C76.2152 99.4612 76.1987 99.4213 76.1987 99.3797V98.5211C76.1992 98.4817 76.2153 98.4441 76.2435 98.4165C76.258 98.4017 76.2754 98.39 76.2947 98.3823C76.314 98.3746 76.3347 98.371 76.3554 98.3717H79.693C79.7138 98.371 79.7345 98.3746 79.7538 98.3823C79.773 98.39 79.7905 98.4017 79.805 98.4165C79.8282 98.4465 79.8413 98.4831 79.8424 98.5211V99.3797C79.8424 99.4201 79.8293 99.4594 79.805 99.4917C79.7905 99.5066 79.773 99.5182 79.7538 99.5259C79.7345 99.5337 79.7138 99.5373 79.693 99.5365Z" fill="#B3B3B3"/>
<path d="M87.7272 101.777C87.6048 101.964 87.4701 102.144 87.3239 102.314C87.1765 102.473 87.0082 102.611 86.8237 102.725C86.6329 102.84 86.4268 102.928 86.2114 102.986C85.9687 103.055 85.7171 103.088 85.4648 103.083C85.1396 103.083 84.8176 103.019 84.5165 102.897C84.2395 102.77 83.9868 102.595 83.7698 102.381C83.5508 102.167 83.3736 101.914 83.2472 101.635C83.1209 101.342 83.0573 101.027 83.0605 100.709C83.0574 100.388 83.121 100.07 83.2472 99.7755C83.371 99.4949 83.5486 99.2412 83.7698 99.0288C83.9868 98.8149 84.2395 98.6405 84.5165 98.5136C84.8166 98.3875 85.1393 98.3239 85.4648 98.327C85.7165 98.3248 85.9674 98.3549 86.2114 98.4166C86.4241 98.4787 86.6275 98.5691 86.8162 98.6854C86.9984 98.7992 87.1642 98.9373 87.309 99.096C87.4552 99.2661 87.5899 99.4457 87.7122 99.6336C87.7214 99.6495 87.7262 99.6675 87.7262 99.6859C87.7262 99.7042 87.7214 99.7223 87.7122 99.7381C87.7073 99.7569 87.698 99.7741 87.685 99.7884C87.672 99.8027 87.6557 99.8137 87.6376 99.8203L86.7416 100.179C86.7005 100.194 86.6556 100.194 86.6146 100.179C86.5753 100.164 86.5414 100.138 86.5176 100.104C86.4086 99.9216 86.2576 99.768 86.077 99.656C85.8865 99.5467 85.6694 99.4925 85.4498 99.4992C85.2945 99.4993 85.1412 99.5351 85.0018 99.6037C84.7186 99.7352 84.4967 99.9704 84.3821 100.261C84.2629 100.555 84.2629 100.885 84.3821 101.179C84.441 101.32 84.5244 101.449 84.6285 101.56C84.7348 101.672 84.8615 101.764 85.0018 101.829C85.1417 101.895 85.295 101.928 85.4498 101.926C85.67 101.93 85.8871 101.873 86.077 101.762C86.2606 101.657 86.4147 101.508 86.525 101.329C86.5453 101.294 86.577 101.268 86.6146 101.254C86.6556 101.239 86.7005 101.239 86.7416 101.254L87.6376 101.605C87.6557 101.611 87.672 101.622 87.685 101.637C87.698 101.651 87.7073 101.668 87.7122 101.687C87.7288 101.714 87.7342 101.746 87.7272 101.777Z" fill="#B3B3B3"/>
<path d="M89.8253 99.6859V99.9547C89.8271 99.9937 89.8434 100.031 89.871 100.058C89.8986 100.086 89.9356 100.102 89.9746 100.104H91.6919C91.7309 100.106 91.7679 100.122 91.7955 100.15C91.8231 100.177 91.8394 100.214 91.8413 100.253V101.127C91.842 101.148 91.8384 101.168 91.8307 101.188C91.8229 101.207 91.8113 101.224 91.7964 101.239C91.7689 101.267 91.7313 101.283 91.6919 101.284H89.9746C89.9405 101.273 89.9041 101.273 89.87 101.284C89.8552 101.298 89.8436 101.316 89.8358 101.335C89.8281 101.354 89.8245 101.375 89.8253 101.396V101.635C89.8241 101.654 89.8275 101.674 89.8353 101.692C89.8431 101.71 89.855 101.726 89.87 101.739C89.8976 101.767 89.9352 101.783 89.9746 101.784H91.9234C91.9628 101.785 92.0003 101.801 92.0279 101.829C92.0428 101.843 92.0544 101.861 92.0621 101.88C92.0698 101.899 92.0734 101.92 92.0727 101.941V102.814C92.0709 102.853 92.0546 102.89 92.027 102.918C91.9993 102.946 91.9624 102.962 91.9234 102.964H88.7053C88.6845 102.964 88.6638 102.961 88.6445 102.953C88.6252 102.945 88.6078 102.934 88.5933 102.919C88.5651 102.891 88.549 102.854 88.5485 102.814V98.4838C88.549 98.4444 88.5651 98.4068 88.5933 98.3792C88.6078 98.3644 88.6252 98.3527 88.6445 98.345C88.6638 98.3373 88.6845 98.3337 88.7053 98.3344H91.9234C91.9624 98.3363 91.9993 98.3526 92.027 98.3802C92.0546 98.4078 92.0709 98.4448 92.0727 98.4838V99.3424C92.0734 99.3632 92.0698 99.3839 92.0621 99.4032C92.0544 99.4225 92.0428 99.4399 92.0279 99.4544C92.0003 99.4826 91.9628 99.4987 91.9234 99.4992H89.9522C89.9128 99.4998 89.8752 99.5159 89.8476 99.544C89.8309 99.5631 89.8199 99.5866 89.8159 99.6117C89.8119 99.6368 89.8152 99.6626 89.8253 99.6859Z" fill="#B3B3B3"/>
<path d="M94.4321 103.001H93.4764C93.4567 103.002 93.437 102.999 93.4189 102.991C93.4007 102.983 93.3846 102.971 93.3719 102.956C93.3438 102.929 93.3277 102.891 93.3271 102.852V98.5286C93.3265 98.5089 93.3302 98.4894 93.3379 98.4713C93.3456 98.4533 93.3572 98.4371 93.3719 98.424C93.3846 98.4089 93.4007 98.397 93.4189 98.3893C93.437 98.3815 93.4567 98.378 93.4764 98.3792H94.4321C94.4715 98.3798 94.5091 98.3959 94.5367 98.424C94.5513 98.4371 94.5629 98.4533 94.5707 98.4713C94.5784 98.4894 94.5821 98.5089 94.5815 98.5286V102.852C94.5797 102.891 94.5634 102.928 94.5357 102.955C94.5081 102.983 94.4712 102.999 94.4321 103.001Z" fill="#B3B3B3"/>
<path d="M99.2631 101.986V102.852C99.2625 102.891 99.2464 102.929 99.2183 102.956C99.2038 102.971 99.1863 102.983 99.167 102.99C99.1477 102.998 99.1271 103.002 99.1063 103.001H95.9554C95.9346 103.002 95.9139 102.998 95.8947 102.99C95.8754 102.983 95.8579 102.971 95.8434 102.956C95.8152 102.929 95.7991 102.891 95.7986 102.852V98.5211C95.7991 98.4817 95.8152 98.4441 95.8434 98.4165C95.8579 98.4017 95.8754 98.39 95.8947 98.3823C95.9139 98.3746 95.9346 98.371 95.9554 98.3717H96.9037C96.9427 98.3736 96.9796 98.3899 97.0072 98.4175C97.0348 98.4451 97.0512 98.482 97.053 98.5211V101.687C97.0535 101.726 97.0696 101.764 97.0978 101.791C97.1117 101.807 97.129 101.819 97.1485 101.827C97.1679 101.835 97.1889 101.838 97.2098 101.836H99.1063C99.1271 101.836 99.1477 101.839 99.167 101.847C99.1863 101.855 99.2038 101.866 99.2183 101.881C99.2464 101.909 99.2625 101.946 99.2631 101.986Z" fill="#B3B3B3"/>
<path d="M101.227 103.001H100.279C100.258 103.002 100.237 102.998 100.218 102.99C100.199 102.983 100.181 102.971 100.167 102.956C100.143 102.926 100.13 102.89 100.129 102.852V98.5285C100.129 98.4904 100.142 98.4535 100.167 98.424C100.181 98.4092 100.199 98.3975 100.218 98.3898C100.237 98.3821 100.258 98.3785 100.279 98.3792H101.227C101.248 98.3785 101.268 98.3821 101.288 98.3898C101.307 98.3975 101.324 98.4092 101.339 98.424C101.353 98.4371 101.365 98.4532 101.373 98.4713C101.381 98.4894 101.384 98.5089 101.384 98.5285V102.852C101.383 102.891 101.367 102.929 101.339 102.956C101.324 102.971 101.307 102.983 101.288 102.99C101.268 102.998 101.248 103.002 101.227 103.001Z" fill="#B3B3B3"/>
<path d="M106.961 98.5211V102.852C106.961 102.891 106.945 102.929 106.916 102.956C106.902 102.971 106.884 102.983 106.865 102.99C106.846 102.998 106.825 103.002 106.804 103.001H105.871C105.829 103.01 105.786 103.01 105.744 103.001C105.701 102.979 105.663 102.949 105.632 102.911L103.989 100.589C103.989 100.589 103.937 100.545 103.907 100.552C103.877 100.559 103.863 100.552 103.863 100.619V102.859C103.864 102.878 103.861 102.897 103.855 102.915C103.848 102.933 103.838 102.95 103.825 102.964C103.811 102.979 103.793 102.99 103.774 102.998C103.755 103.006 103.734 103.009 103.713 103.009H102.765C102.726 103.007 102.689 102.99 102.661 102.963C102.634 102.935 102.617 102.898 102.616 102.859V98.5285C102.616 98.4891 102.632 98.4516 102.66 98.424C102.674 98.4093 102.69 98.3977 102.708 98.39C102.726 98.3823 102.745 98.3786 102.765 98.3792H103.713C103.761 98.3775 103.808 98.3906 103.848 98.4165C103.89 98.4331 103.926 98.4617 103.952 98.4987L105.602 100.821C105.611 100.833 105.622 100.844 105.635 100.851C105.648 100.859 105.662 100.864 105.677 100.866C105.677 100.866 105.722 100.866 105.722 100.791V98.5509C105.722 98.5115 105.738 98.474 105.767 98.4464C105.78 98.4317 105.796 98.4201 105.814 98.4124C105.832 98.4047 105.851 98.401 105.871 98.4016H106.804C106.825 98.4009 106.846 98.4045 106.865 98.4122C106.884 98.4199 106.902 98.4316 106.916 98.4464C106.938 98.4663 106.954 98.4923 106.961 98.5211Z" fill="#B3B3B3"/>
<path d="M110.515 103.083C109.87 103.086 109.25 102.834 108.791 102.381C108.569 102.169 108.392 101.915 108.268 101.635C108.136 101.344 108.069 101.028 108.074 100.709C108.071 100.387 108.137 100.069 108.268 99.7755C108.392 99.4949 108.569 99.2413 108.791 99.0288C109.006 98.8133 109.259 98.6387 109.537 98.5136C109.837 98.3866 110.16 98.3231 110.485 98.327C110.907 98.3143 111.324 98.4121 111.695 98.6107C112.037 98.7951 112.325 99.0652 112.531 99.3947C112.541 99.4132 112.545 99.4337 112.545 99.4544C112.545 99.4751 112.541 99.4956 112.531 99.5142C112.524 99.5526 112.502 99.587 112.472 99.6112L111.725 100.097C111.689 100.11 111.649 100.11 111.613 100.097C111.57 100.089 111.531 100.068 111.501 100.037C111.38 99.8804 111.231 99.7486 111.06 99.6485C110.886 99.5484 110.687 99.4992 110.485 99.5067C110.328 99.5041 110.173 99.5373 110.03 99.6037C109.892 99.6664 109.768 99.7552 109.664 99.8651C109.558 99.9761 109.472 100.105 109.41 100.246C109.351 100.39 109.321 100.545 109.321 100.701C109.329 100.935 109.403 101.162 109.535 101.355C109.668 101.548 109.852 101.699 110.067 101.791C110.21 101.858 110.366 101.891 110.523 101.889C110.684 101.888 110.843 101.857 110.993 101.799C111.146 101.745 111.277 101.643 111.367 101.508C111.375 101.494 111.38 101.479 111.38 101.463C111.38 101.447 111.375 101.431 111.367 101.418C111.358 101.403 111.345 101.39 111.329 101.382C111.313 101.374 111.295 101.371 111.277 101.373H110.53C110.491 101.372 110.454 101.355 110.427 101.328C110.399 101.3 110.383 101.263 110.381 101.224V100.477C110.381 100.438 110.398 100.4 110.426 100.373C110.43 100.356 110.438 100.34 110.448 100.326C110.459 100.312 110.473 100.3 110.488 100.292C110.504 100.283 110.521 100.278 110.538 100.277C110.556 100.275 110.573 100.278 110.59 100.283H112.763C112.803 100.283 112.842 100.296 112.875 100.321C112.891 100.335 112.903 100.352 112.912 100.371C112.921 100.39 112.926 100.411 112.927 100.433C112.931 100.52 112.931 100.607 112.927 100.694C112.934 100.801 112.934 100.908 112.927 101.015C112.906 101.301 112.822 101.579 112.681 101.829C112.55 102.073 112.375 102.291 112.165 102.471C111.941 102.653 111.689 102.796 111.419 102.897C111.132 103.015 110.826 103.079 110.515 103.083Z" fill="#B3B3B3"/>
<path d="M119.834 99.5365H118.945C118.906 99.5384 118.869 99.5547 118.842 99.5823C118.814 99.6099 118.798 99.6469 118.796 99.6859V102.852C118.795 102.891 118.779 102.929 118.751 102.956C118.737 102.971 118.719 102.983 118.7 102.991C118.681 102.999 118.66 103.002 118.639 103.001H117.691C117.652 102.999 117.615 102.983 117.587 102.955C117.56 102.928 117.543 102.891 117.541 102.852V99.6859C117.542 99.6662 117.538 99.6467 117.531 99.6286C117.523 99.6106 117.511 99.5944 117.497 99.5813C117.484 99.5663 117.468 99.5544 117.45 99.5466C117.432 99.5388 117.412 99.5354 117.392 99.5365H116.489C116.449 99.536 116.412 99.5199 116.384 99.4917C116.369 99.4772 116.358 99.4597 116.35 99.4405C116.342 99.4212 116.339 99.4005 116.339 99.3797V98.5211C116.341 98.4821 116.357 98.4451 116.385 98.4175C116.413 98.3899 116.45 98.3736 116.489 98.3717H119.834C119.853 98.3706 119.873 98.374 119.891 98.3818C119.909 98.3896 119.925 98.4015 119.938 98.4165C119.966 98.4441 119.982 98.4817 119.983 98.5211V99.3797C119.984 99.4005 119.98 99.4212 119.972 99.4405C119.965 99.4597 119.953 99.4772 119.938 99.4917C119.925 99.5068 119.909 99.5187 119.891 99.5265C119.873 99.5343 119.853 99.5377 119.834 99.5365Z" fill="#B3B3B3"/>
<path d="M121.999 103.001H121.043C121.023 103.002 121.002 102.998 120.983 102.99C120.963 102.983 120.946 102.971 120.931 102.956C120.908 102.926 120.895 102.89 120.894 102.852V98.5285C120.894 98.4904 120.907 98.4535 120.931 98.424C120.946 98.4092 120.963 98.3975 120.983 98.3898C121.002 98.3821 121.023 98.3785 121.043 98.3792H121.992C122.012 98.3785 122.033 98.3821 122.052 98.3898C122.072 98.3975 122.089 98.4092 122.104 98.424C122.128 98.4535 122.141 98.4904 122.141 98.5285V102.852C122.14 102.89 122.127 102.926 122.104 102.956C122.076 102.984 122.038 103.001 121.999 103.001Z" fill="#B3B3B3"/>
<path d="M126.83 101.986V102.852C126.829 102.891 126.813 102.929 126.785 102.956C126.772 102.971 126.756 102.983 126.738 102.99C126.72 102.998 126.7 103.002 126.681 103.001H123.522C123.501 103.002 123.481 102.998 123.461 102.99C123.442 102.983 123.425 102.971 123.41 102.956C123.387 102.926 123.374 102.89 123.373 102.852V98.5211C123.374 98.4831 123.387 98.4465 123.41 98.4165C123.425 98.4017 123.442 98.39 123.461 98.3823C123.481 98.3746 123.501 98.371 123.522 98.3717H124.47C124.491 98.371 124.512 98.3746 124.531 98.3823C124.55 98.39 124.568 98.4017 124.582 98.4165C124.611 98.4441 124.627 98.4817 124.627 98.5211V101.687C124.628 101.725 124.641 101.761 124.665 101.791C124.679 101.806 124.697 101.818 124.716 101.826C124.735 101.833 124.756 101.837 124.777 101.836H126.681C126.7 101.836 126.72 101.839 126.738 101.847C126.756 101.855 126.772 101.866 126.785 101.881C126.813 101.909 126.829 101.946 126.83 101.986Z" fill="#B3B3B3"/>
<path d="M128.891 99.6859V99.9547C128.891 99.9941 128.907 100.032 128.936 100.059C128.95 100.074 128.967 100.086 128.987 100.093C129.006 100.101 129.027 100.105 129.047 100.104H130.75C130.771 100.103 130.791 100.107 130.811 100.115C130.83 100.122 130.847 100.134 130.862 100.149C130.89 100.176 130.906 100.214 130.907 100.253V101.127C130.907 101.148 130.903 101.168 130.895 101.187C130.887 101.206 130.875 101.223 130.861 101.238C130.846 101.252 130.829 101.264 130.81 101.272C130.791 101.28 130.77 101.284 130.75 101.284H129.04C129.004 101.272 128.964 101.272 128.928 101.284C128.913 101.298 128.902 101.316 128.894 101.335C128.886 101.354 128.882 101.375 128.883 101.396V101.635C128.882 101.654 128.886 101.674 128.893 101.692C128.901 101.71 128.913 101.726 128.928 101.739C128.943 101.754 128.96 101.766 128.979 101.773C128.999 101.781 129.019 101.785 129.04 101.784H131.004C131.045 101.784 131.085 101.801 131.115 101.83C131.144 101.859 131.161 101.899 131.161 101.941V102.814C131.16 102.854 131.144 102.891 131.116 102.919C131.101 102.934 131.084 102.945 131.064 102.953C131.045 102.961 131.025 102.964 131.004 102.964H127.763C127.744 102.964 127.724 102.961 127.706 102.953C127.688 102.945 127.672 102.934 127.659 102.919C127.631 102.891 127.614 102.854 127.614 102.814V98.4838C127.614 98.4444 127.631 98.4068 127.659 98.3792C127.672 98.3646 127.688 98.353 127.706 98.3452C127.724 98.3375 127.744 98.3338 127.763 98.3344H130.981C131.002 98.3337 131.023 98.3373 131.042 98.345C131.061 98.3527 131.079 98.3644 131.093 98.3792C131.121 98.4068 131.138 98.4444 131.138 98.4838V99.3424C131.138 99.384 131.122 99.4239 131.092 99.4533C131.063 99.4827 131.023 99.4992 130.981 99.4992H129.018C128.997 99.4985 128.976 99.5021 128.957 99.5098C128.938 99.5175 128.92 99.5292 128.906 99.544C128.89 99.5639 128.88 99.5877 128.878 99.6128C128.875 99.6379 128.88 99.6632 128.891 99.6859Z" fill="#B3B3B3"/>
<path d="M132.87 101.411C133.083 101.552 133.311 101.67 133.55 101.762C133.75 101.84 133.962 101.883 134.177 101.889C134.323 101.896 134.469 101.868 134.603 101.806C134.646 101.786 134.683 101.753 134.708 101.712C134.734 101.671 134.746 101.623 134.745 101.575C134.746 101.549 134.741 101.524 134.731 101.501C134.72 101.477 134.705 101.457 134.685 101.441C134.633 101.406 134.574 101.38 134.513 101.366C134.436 101.339 134.356 101.321 134.274 101.314L133.983 101.261L133.662 101.202C133.53 101.176 133.4 101.141 133.274 101.097C133.141 101.051 133.011 100.996 132.885 100.933C132.758 100.863 132.643 100.775 132.542 100.671C132.441 100.562 132.36 100.436 132.303 100.298C132.234 100.135 132.201 99.9596 132.206 99.7829C132.194 99.5231 132.253 99.2648 132.378 99.0363C132.486 98.8559 132.634 98.7027 132.811 98.5883C132.991 98.4739 133.191 98.393 133.401 98.3494C133.604 98.3054 133.812 98.2829 134.02 98.2822C134.346 98.2771 134.669 98.3302 134.976 98.439C135.267 98.5479 135.539 98.7016 135.782 98.8944C135.812 98.9229 135.833 98.9592 135.842 98.999C135.844 99.0192 135.841 99.0395 135.835 99.0588C135.829 99.0781 135.818 99.0958 135.805 99.1109L135.312 99.8128C135.301 99.83 135.287 99.8449 135.27 99.8564C135.254 99.868 135.235 99.876 135.215 99.88C135.177 99.895 135.134 99.895 135.095 99.88C134.912 99.7545 134.71 99.6565 134.498 99.5888C134.332 99.5347 134.158 99.5069 133.983 99.5067H133.826C133.767 99.4995 133.706 99.4995 133.647 99.5067C133.598 99.5224 133.552 99.5477 133.513 99.5813C133.494 99.6 133.48 99.6223 133.471 99.6468C133.462 99.6712 133.459 99.6972 133.46 99.7232C133.46 99.7829 133.505 99.8352 133.595 99.88C133.693 99.9281 133.796 99.9681 133.901 99.9995L134.229 100.082H134.431C134.6 100.117 134.767 100.162 134.931 100.216C135.112 100.272 135.283 100.355 135.439 100.462C135.601 100.58 135.735 100.73 135.835 100.903C135.952 101.107 136.009 101.34 135.999 101.575C136.005 101.801 135.959 102.026 135.865 102.232C135.781 102.411 135.652 102.565 135.491 102.68C135.322 102.806 135.129 102.898 134.924 102.949C134.679 103.006 134.428 103.034 134.177 103.031C133.969 103.033 133.762 103.016 133.557 102.979C133.209 102.915 132.875 102.789 132.572 102.605C132.436 102.523 132.306 102.431 132.183 102.329C132.166 102.317 132.152 102.302 132.141 102.284C132.131 102.266 132.125 102.245 132.124 102.225C132.109 102.186 132.109 102.144 132.124 102.105L132.609 101.403C132.636 101.372 132.673 101.351 132.714 101.343C132.743 101.341 132.773 101.345 132.801 101.357C132.828 101.369 132.852 101.387 132.87 101.411Z" fill="#B3B3B3"/>
<defs>
<linearGradient id="paint0_linear_3_322" x1="27.5834" y1="71.4246" x2="27.5834" y2="3.47825" gradientUnits="userSpaceOnUse">
<stop stop-color="#9AC281"/>
<stop offset="0.16" stop-color="#92C185"/>
<stop offset="0.4" stop-color="#7EBD8F"/>
<stop offset="0.7" stop-color="#5CB7A0"/>
<stop offset="1" stop-color="#31B0B5"/>
</linearGradient>
<linearGradient id="paint1_linear_3_322" x1="107.895" y1="71.4247" x2="107.895" y2="3.47827" gradientUnits="userSpaceOnUse">
<stop stop-color="#9AC281"/>
<stop offset="0.16" stop-color="#92C185"/>
<stop offset="0.4" stop-color="#7EBD8F"/>
<stop offset="0.7" stop-color="#5CB7A0"/>
<stop offset="1" stop-color="#31B0B5"/>
</linearGradient>
<linearGradient id="paint2_linear_3_322" x1="67.7539" y1="71.4247" x2="67.7539" y2="3.47827" gradientUnits="userSpaceOnUse">
<stop stop-color="#9AC281"/>
<stop offset="0.16" stop-color="#92C185"/>
<stop offset="0.4" stop-color="#7EBD8F"/>
<stop offset="0.7" stop-color="#5CB7A0"/>
<stop offset="1" stop-color="#31B0B5"/>
</linearGradient>
</defs>
</svg>
