<svg width="17" height="20" viewBox="0 0 17 20" fill="none" xmlns="http://www.w3.org/2000/svg">
<g clip-path="url(#clip0_3_78)">
<path d="M14.0291 10.6051C14.0567 13.626 16.6379 14.6313 16.6664 14.6441C16.6446 14.715 16.254 16.0767 15.3066 17.4832C14.4876 18.6993 13.6376 19.9109 12.2985 19.9359C10.9829 19.9606 10.5597 19.1434 9.05549 19.1434C7.55168 19.1434 7.08162 19.9109 5.83612 19.9606C4.54362 20.0103 3.55937 18.6457 2.73362 17.434C1.04612 14.9557 -0.243446 10.4309 1.48812 7.37651C2.3483 5.85968 3.88562 4.89924 5.55412 4.8746C6.8233 4.85003 8.0213 5.74203 8.79718 5.74203C9.57255 5.74203 11.0284 4.66933 12.5588 4.82686C13.1994 4.85397 14.9979 5.08971 16.1527 6.80692C16.0596 6.86552 14.0068 8.07956 14.0291 10.6051M11.5564 3.18724C12.2427 2.34343 12.7045 1.16883 12.5785 0C11.5894 0.040381 10.3934 0.669587 9.68387 1.51289C9.04805 2.25975 8.49124 3.45505 8.64149 4.6007C9.74399 4.68737 10.8702 4.03156 11.5564 3.18724Z" fill="black"/>
</g>
<defs>
<clipPath id="clip0_3_78">
<rect width="16" height="20" fill="white" transform="translate(0.666687)"/>
</clipPath>
</defs>
</svg>
