<svg width="9" height="9" viewBox="0 0 9 9" fill="none" xmlns="http://www.w3.org/2000/svg">
<g clip-path="url(#clip0_11_262)">
<path d="M1.87502 1.12497V7.87497C1.87524 7.94331 1.89408 8.0103 1.92954 8.06872C1.96499 8.12715 2.01571 8.1748 2.07623 8.20654C2.13675 8.23829 2.20478 8.25293 2.273 8.24888C2.34122 8.24484 2.40705 8.22227 2.4634 8.1836L7.3384 4.8086C7.54052 4.66872 7.54052 4.33197 7.3384 4.19172L2.4634 0.816721C2.40717 0.777655 2.34131 0.754746 2.27297 0.750483C2.20464 0.746219 2.13644 0.760765 2.07579 0.792539C2.01515 0.824312 1.96436 0.872099 1.92897 0.930707C1.89357 0.989315 1.87491 1.0565 1.87502 1.12497Z" fill="url(#paint0_linear_11_262)"/>
</g>
<defs>
<linearGradient id="paint0_linear_11_262" x1="4.68251" y1="8.24954" x2="4.68251" y2="0.749756" gradientUnits="userSpaceOnUse">
<stop stop-color="#31B0B5"/>
<stop offset="1" stop-color="#9AC381"/>
</linearGradient>
<clipPath id="clip0_11_262">
<rect width="9" height="9" fill="white" transform="translate(9) rotate(90)"/>
</clipPath>
</defs>
</svg>
