<svg width="22" height="22" viewBox="0 0 22 22" fill="none" xmlns="http://www.w3.org/2000/svg">
<path d="M8.11934 11.4639C5.83826 9.75847 4.21267 7.88255 3.32506 6.82795C3.0503 6.50149 2.96027 6.26257 2.90614 5.84173C2.72077 4.40073 2.62809 3.68023 3.05062 3.21512C3.47316 2.75 4.22037 2.75 5.7148 2.75H16.2852C17.7797 2.75 18.5268 2.75 18.9493 3.21512C19.3719 3.68023 19.2792 4.40073 19.0939 5.84174C19.0397 6.26258 18.9497 6.50149 18.6749 6.82795C17.7861 7.8839 16.1573 9.76314 13.8716 11.4707C13.6648 11.6253 13.5284 11.877 13.5031 12.1563C13.2767 14.6593 13.0679 16.0303 12.9379 16.7238C12.7282 17.8436 11.1404 18.5172 10.2905 19.1183C9.78459 19.476 9.17061 19.0502 9.10505 18.4963C8.98006 17.4406 8.74464 15.2959 8.48766 12.1563C8.46458 11.8744 8.32779 11.6198 8.11934 11.4639Z" fill="white" stroke="white" stroke-width="1.1875" stroke-linecap="round" stroke-linejoin="round"/>
</svg>
