<svg width="21" height="20" viewBox="0 0 21 20" fill="none" xmlns="http://www.w3.org/2000/svg">
<g clip-path="url(#clip0_3_67)">
<path d="M7.30051 0.65784C5.3022 1.35107 3.57886 2.66685 2.38363 4.41191C1.18839 6.15696 0.584251 8.23932 0.659956 10.3531C0.73566 12.4669 1.48722 14.5007 2.80423 16.1558C4.12124 17.8108 5.93429 19 7.97708 19.5485C9.63321 19.9758 11.3683 19.9946 13.0333 19.6032C14.5416 19.2644 15.9361 18.5397 17.0802 17.5C18.271 16.3849 19.1353 14.9664 19.5802 13.3969C20.0638 11.6901 20.1499 9.89524 19.8318 8.15003H10.5318V12.0078H15.9177C15.8101 12.6231 15.5794 13.2104 15.2395 13.7345C14.8996 14.2585 14.4575 14.7086 13.9396 15.0578C13.2819 15.4929 12.5405 15.7856 11.763 15.9172C10.9832 16.0622 10.1834 16.0622 9.40364 15.9172C8.61331 15.7538 7.86567 15.4276 7.20833 14.9594C6.15231 14.2119 5.35938 13.1499 4.9427 11.925C4.51898 10.6772 4.51898 9.32441 4.9427 8.07659C5.23931 7.20193 5.72963 6.40555 6.37708 5.7469C7.118 4.97932 8.05603 4.43065 9.08826 4.16108C10.1205 3.89152 11.207 3.91148 12.2286 4.21878C13.0267 4.46376 13.7565 4.8918 14.3599 5.46878C14.9672 4.86461 15.5734 4.25888 16.1786 3.65159C16.4911 3.32503 16.8318 3.01409 17.1396 2.67971C16.2186 1.82265 15.1375 1.15574 13.9583 0.717215C11.811 -0.0624883 9.46142 -0.0834421 7.30051 0.65784Z" fill="white"/>
<path d="M7.30052 0.657806C9.46124 -0.08398 11.8108 -0.0635778 13.9583 0.715618C15.1377 1.15712 16.2183 1.82724 17.138 2.68749C16.8255 3.02187 16.4958 3.33437 16.1771 3.65937C15.5708 4.26458 14.9651 4.8677 14.3599 5.46874C13.7565 4.89177 13.0267 4.46373 12.2286 4.21874C11.2074 3.91037 10.1209 3.88926 9.08836 4.15772C8.05586 4.42618 7.11725 4.97384 6.37552 5.74062C5.72807 6.39927 5.23775 7.19564 4.94114 8.07031L1.70208 5.56249C2.86147 3.26337 4.86888 1.50472 7.30052 0.657806Z" fill="#E33629"/>
<path d="M0.842702 8.04688C1.0168 7.18405 1.30583 6.34848 1.70208 5.5625L4.94114 8.07656C4.51741 9.32438 4.51741 10.6772 4.94114 11.925C3.86197 12.7583 2.78229 13.5958 1.70208 14.4375C0.710125 12.463 0.407597 10.2133 0.842702 8.04688Z" fill="#F8BD00"/>
<path d="M10.5318 8.14844H19.8318C20.1499 9.89365 20.0638 11.6885 19.5802 13.3953C19.1353 14.9648 18.2709 16.3834 17.0802 17.4984C16.0349 16.6828 14.9849 15.8734 13.9396 15.0578C14.4578 14.7082 14.9002 14.2576 15.2401 13.733C15.58 13.2084 15.8105 12.6205 15.9177 12.0047H10.5318C10.5302 10.7203 10.5318 9.43437 10.5318 8.14844Z" fill="#587DBD"/>
<path d="M1.70052 14.4375C2.78072 13.6042 3.86041 12.7667 4.93958 11.925C5.35709 13.1503 6.15115 14.2123 7.20833 14.9594C7.86772 15.4254 8.61697 15.7489 9.40833 15.9094C10.1881 16.0544 10.9879 16.0544 11.7677 15.9094C12.5452 15.7778 13.2866 15.485 13.9443 15.05C14.9896 15.8656 16.0396 16.675 17.0849 17.4906C15.941 18.5308 14.5465 19.2561 13.038 19.5953C11.373 19.9867 9.6379 19.9679 7.98177 19.5406C6.67193 19.1909 5.44845 18.5744 4.38802 17.7297C3.26561 16.8386 2.34888 15.7156 1.70052 14.4375Z" fill="#319F43"/>
</g>
<defs>
<clipPath id="clip0_3_67">
<rect width="20" height="20" fill="white" transform="translate(0.333328)"/>
</clipPath>
</defs>
</svg>
