<svg width="46" height="34" viewBox="0 0 46 34" fill="none" xmlns="http://www.w3.org/2000/svg">
<path d="M18.6861 16.8916C18.6798 16.6993 18.65 16.5084 18.5973 16.3234C18.5597 16.1568 18.499 15.9963 18.4172 15.8464C17.0726 13.5405 15.6926 11.265 14.3025 9.0605C12.9123 6.85602 11.4917 4.52977 10.1041 2.1807C9.9867 1.98084 9.91272 1.75851 9.88693 1.52818C9.86115 1.29785 9.88413 1.06467 9.9544 0.843803C9.9544 0.813362 9.97723 0.787995 9.98991 0.757553H0.8067C0.594071 0.759559 0.390836 0.845435 0.241192 0.996504C0.0915486 1.14757 0.00760062 1.35162 0.00761008 1.56426V6.13049C0.00485785 6.23684 0.0244329 6.34258 0.0650689 6.44089C0.105705 6.5392 0.166497 6.62791 0.24353 6.70127C0.317463 6.77756 0.406269 6.83786 0.504449 6.87844C0.602628 6.91903 0.70809 6.93902 0.81431 6.9372H11.2685C11.3748 6.93444 11.4805 6.95402 11.5789 6.99465C11.6772 7.03529 11.7659 7.09609 11.8392 7.17312C11.9155 7.24705 11.9758 7.33586 12.0164 7.43404C12.057 7.53221 12.077 7.63768 12.0752 7.7439V9.1569C12.077 9.26312 12.057 9.36858 12.0164 9.46676C11.9758 9.56494 11.9155 9.65374 11.8392 9.72768C11.7659 9.80471 11.6772 9.86551 11.5789 9.90614C11.4805 9.94678 11.3748 9.96635 11.2685 9.9636H2.1512C2.04508 9.96292 1.93988 9.98333 1.8417 10.0236C1.74352 10.0639 1.65432 10.1233 1.57928 10.1984C1.50423 10.2734 1.44484 10.3626 1.40454 10.4608C1.36423 10.559 1.34383 10.6642 1.3445 10.7703V15.4076C1.34383 15.5137 1.36423 15.6189 1.40454 15.7171C1.44484 15.8153 1.50423 15.9045 1.57928 15.9795C1.65432 16.0545 1.74352 16.1139 1.8417 16.1542C1.93988 16.1945 2.04508 16.2149 2.1512 16.2143H11.2608C11.3672 16.2115 11.4729 16.2311 11.5712 16.2717C11.6696 16.3124 11.7583 16.3732 11.8316 16.4502C11.9079 16.5241 11.9682 16.6129 12.0088 16.7111C12.0494 16.8093 12.0694 16.9148 12.0675 17.021V18.2894C12.0694 18.3956 12.0494 18.5011 12.0088 18.5992C11.9682 18.6974 11.9079 18.7862 11.8316 18.8602C11.7583 18.9372 11.6696 18.998 11.5712 19.0386C11.4729 19.0793 11.3672 19.0988 11.2608 19.0961H0.8067C0.592749 19.0961 0.387562 19.1811 0.236276 19.3324C0.0849905 19.4836 0 19.6888 0 19.9028V24.5426C0 24.7565 0.0849905 24.9617 0.236276 25.113C0.387562 25.2643 0.592749 25.3493 0.8067 25.3493H17.9174C18.0237 25.352 18.1295 25.3325 18.2278 25.2918C18.3261 25.2512 18.4148 25.1904 18.4882 25.1134C18.5979 25.0069 18.6731 24.8699 18.7038 24.7202C18.7038 24.6618 18.6861 24.6035 18.6861 24.5426V16.8916Z" fill="#3A99A1"/>
<path d="M0.806781 25.1159C0.733179 25.1177 0.660016 25.1041 0.591902 25.0762C0.523789 25.0482 0.462205 25.0065 0.411041 24.9536C0.358589 24.902 0.317153 24.8404 0.289245 24.7723C0.261336 24.7043 0.247537 24.6313 0.248686 24.5578V19.918C0.24835 19.8446 0.262556 19.7719 0.290484 19.704C0.318411 19.6362 0.35951 19.5745 0.411401 19.5226C0.463292 19.4707 0.524949 19.4296 0.592812 19.4017C0.660675 19.3738 0.733397 19.3596 0.806781 19.3599H11.2609C11.3996 19.3602 11.537 19.3332 11.6652 19.2803C11.7934 19.2273 11.9098 19.1496 12.0079 19.0516C12.1059 18.9535 12.1837 18.837 12.2366 18.7088C12.2895 18.5807 12.3166 18.4433 12.3162 18.3046V17.0362C12.3166 16.8975 12.2895 16.7601 12.2366 16.632C12.1837 16.5038 12.1059 16.3873 12.0079 16.2892C11.9098 16.1912 11.7934 16.1135 11.6652 16.0605C11.537 16.0076 11.3996 15.9806 11.2609 15.9809H2.15128C2.07762 15.9831 2.00432 15.9698 1.93614 15.9418C1.86795 15.9139 1.80642 15.8718 1.75554 15.8185C1.70248 15.7675 1.66064 15.7059 1.63269 15.6378C1.60473 15.5696 1.59128 15.4964 1.59319 15.4228V10.7754C1.59285 10.702 1.60706 10.6293 1.63499 10.5614C1.66292 10.4935 1.70401 10.4319 1.7559 10.38C1.8078 10.3281 1.86945 10.287 1.93732 10.2591C2.00518 10.2312 2.0779 10.2169 2.15128 10.2173H11.2609C11.3996 10.2176 11.537 10.1905 11.6652 10.1376C11.7934 10.0847 11.9098 10.007 12.0079 9.90894C12.1059 9.81087 12.1837 9.6944 12.2366 9.56622C12.2895 9.43803 12.3166 9.30065 12.3162 9.16197V7.74897C12.3166 7.6103 12.2895 7.47292 12.2366 7.34473C12.1837 7.21654 12.1059 7.10007 12.0079 7.00201C11.9098 6.90395 11.7934 6.82623 11.6652 6.77332C11.537 6.7204 11.3996 6.69333 11.2609 6.69367H0.806781C0.733118 6.69589 0.659813 6.68258 0.591632 6.65461C0.52345 6.62664 0.461919 6.58463 0.411041 6.53131C0.358102 6.48015 0.316345 6.41857 0.288401 6.35045C0.260457 6.28234 0.246934 6.20917 0.248686 6.13557V1.56933C0.24835 1.49595 0.262556 1.42322 0.290484 1.35536C0.318411 1.2875 0.35951 1.22584 0.411401 1.17395C0.463292 1.12206 0.524949 1.08096 0.592812 1.05304C0.660675 1.02511 0.733397 1.0109 0.806781 1.01124H9.66021C9.58112 1.45644 9.66104 1.91529 9.88598 2.30754C11.2812 4.6693 12.6942 6.9854 14.092 9.20002C15.4898 11.4146 16.8622 13.6775 18.2041 15.9784C18.2738 16.1084 18.3251 16.2476 18.3563 16.3919C18.4042 16.557 18.4315 16.7274 18.4375 16.8992V24.5654C18.4345 24.617 18.4345 24.6686 18.4375 24.7202C18.4127 24.8083 18.3645 24.8881 18.298 24.951C18.2473 25.0047 18.1858 25.0471 18.1176 25.0755C18.0495 25.1039 17.9761 25.1176 17.9023 25.1159H0.806781Z" fill="url(#paint0_linear_9_226)"/>
<path d="M34.1655 7.1782C34.2398 7.10172 34.329 7.04132 34.4276 7.00073C34.5263 6.96015 34.6322 6.94025 34.7388 6.94228H45.1929C45.2991 6.9441 45.4046 6.92411 45.5028 6.88353C45.601 6.84295 45.6898 6.78264 45.7637 6.70636C45.8407 6.63299 45.9015 6.54429 45.9422 6.44598C45.9828 6.34766 46.0024 6.24192 45.9996 6.13558V1.56934C45.9996 1.35539 45.9146 1.1502 45.7633 0.998913C45.6121 0.847627 45.4069 0.762634 45.1929 0.762634H36.03C36.1594 1.08481 36.1873 1.55158 35.8347 2.17563L27.4049 15.8109C27.3506 15.9165 27.3039 16.0259 27.2654 16.1382V24.5578C27.2654 24.7718 27.3504 24.977 27.5017 25.1282C27.6529 25.2795 27.8581 25.3645 28.0721 25.3645H45.1828C45.3967 25.3645 45.6019 25.2795 45.7532 25.1282C45.9045 24.977 45.9895 24.7718 45.9895 24.5578V19.918C45.9895 19.7041 45.9045 19.4989 45.7532 19.3476C45.6019 19.1963 45.3967 19.1113 45.1828 19.1113H34.7388C34.6327 19.112 34.5275 19.0916 34.4293 19.0513C34.3311 19.011 34.2419 18.9516 34.1669 18.8765C34.0918 18.8015 34.0324 18.7123 33.9921 18.6141C33.9518 18.5159 33.9314 18.4107 33.9321 18.3046V17.0362C33.9314 16.9301 33.9518 16.8249 33.9921 16.7267C34.0324 16.6285 34.0918 16.5393 34.1669 16.4643C34.2419 16.3892 34.3311 16.3298 34.4293 16.2895C34.5275 16.2492 34.6327 16.2288 34.7388 16.2295H43.8484C43.9559 16.2302 44.0623 16.2093 44.1615 16.1681C44.2607 16.1268 44.3506 16.0661 44.4259 15.9894C44.5011 15.9127 44.5602 15.8217 44.5996 15.7218C44.639 15.6218 44.6578 15.515 44.6551 15.4076V10.7754C44.6558 10.6693 44.6354 10.5641 44.5951 10.4659C44.5548 10.3677 44.4954 10.2785 44.4204 10.2035C44.3453 10.1284 44.2561 10.069 44.1579 10.0287C44.0598 9.98841 43.9546 9.96801 43.8484 9.96868H34.7388C34.6327 9.96935 34.5275 9.94895 34.4293 9.90865C34.3311 9.86835 34.2419 9.80895 34.1669 9.73391C34.0918 9.65886 34.0324 9.56966 33.9921 9.47149C33.9518 9.37331 33.9314 9.2681 33.9321 9.16198V7.74898C33.9304 7.643 33.9502 7.53778 33.9903 7.43968C34.0304 7.34157 34.09 7.25262 34.1655 7.1782Z" fill="#3A99A1"/>
<path d="M28.0825 25.1159C28.0089 25.1177 27.9357 25.1041 27.8676 25.0762C27.7995 25.0482 27.7379 25.0065 27.6867 24.9535C27.6335 24.9026 27.5916 24.841 27.5637 24.7729C27.5357 24.7047 27.5223 24.6315 27.5244 24.5578V16.1864C27.5545 16.0997 27.5901 16.0149 27.6309 15.9327L36.048 2.29739C36.2927 1.91284 36.4008 1.45711 36.355 1.00363H45.1932C45.2668 1.00156 45.3401 1.01494 45.4082 1.0429C45.4764 1.07087 45.5379 1.11279 45.5889 1.16598C45.6419 1.21714 45.6836 1.27873 45.7116 1.34684C45.7395 1.41495 45.753 1.48812 45.7513 1.56172V6.12796C45.753 6.20156 45.7395 6.27473 45.7116 6.34284C45.6836 6.41095 45.6419 6.47254 45.5889 6.5237C45.5379 6.57689 45.4764 6.61881 45.4082 6.64678C45.3401 6.67474 45.2668 6.68812 45.1932 6.68606H34.739C34.6004 6.68572 34.463 6.71279 34.3348 6.7657C34.2066 6.81862 34.0901 6.89634 33.9921 6.9944C33.894 7.09246 33.8163 7.20893 33.7634 7.33712C33.7105 7.46531 33.6834 7.60268 33.6837 7.74136V9.15436C33.6834 9.29304 33.7105 9.43042 33.7634 9.55861C33.8163 9.68679 33.894 9.80326 33.9921 9.90132C34.0901 9.99938 34.2066 10.0771 34.3348 10.13C34.463 10.1829 34.6004 10.21 34.739 10.2097H43.8487C43.9222 10.2085 43.9952 10.2223 44.0632 10.2502C44.1312 10.2781 44.1929 10.3196 44.2444 10.372C44.2974 10.4232 44.3391 10.4848 44.3671 10.5529C44.395 10.621 44.4085 10.6942 44.4068 10.7678V15.4076C44.4071 15.481 44.3929 15.5537 44.365 15.6215C44.337 15.6894 44.2959 15.7511 44.2441 15.803C44.1922 15.8548 44.1305 15.8959 44.0626 15.9239C43.9948 15.9518 43.9221 15.966 43.8487 15.9657H34.739C34.6004 15.9653 34.463 15.9924 34.3348 16.0453C34.2066 16.0982 34.0901 16.176 33.9921 16.274C33.894 16.3721 33.8163 16.4885 33.7634 16.6167C33.7105 16.7449 33.6834 16.8823 33.6837 17.021V18.2894C33.6834 18.4281 33.7105 18.5654 33.7634 18.6936C33.8163 18.8218 33.894 18.9383 33.9921 19.0363C34.0901 19.1344 34.2066 19.2121 34.3348 19.265C34.463 19.3179 34.6004 19.345 34.739 19.3447H45.1932C45.2668 19.3426 45.3401 19.356 45.4082 19.384C45.4764 19.4119 45.5379 19.4538 45.5889 19.507C45.6419 19.5582 45.6836 19.6198 45.7116 19.6879C45.7395 19.756 45.753 19.8292 45.7513 19.9028V24.5426C45.7516 24.616 45.7374 24.6887 45.7095 24.7566C45.6815 24.8244 45.6404 24.8861 45.5886 24.938C45.5367 24.9899 45.475 25.031 45.4071 25.0589C45.3393 25.0868 45.2666 25.101 45.1932 25.1007L28.0825 25.1159Z" fill="url(#paint1_linear_9_226)"/>
<path d="M26.6643 15.3467C26.5386 15.5821 26.4367 15.8294 26.3599 16.0849C26.2785 16.335 26.234 16.5957 26.228 16.8586V24.5578C26.2298 24.664 26.2098 24.7695 26.1692 24.8677C26.1286 24.9658 26.0683 25.0546 25.992 25.1286C25.919 25.2053 25.8307 25.2659 25.7328 25.3065C25.635 25.3471 25.5297 25.3669 25.4238 25.3645H20.373C20.2671 25.3669 20.1619 25.3471 20.064 25.3065C19.9662 25.2659 19.8779 25.2053 19.8048 25.1286C19.7293 25.0542 19.6697 24.9652 19.6296 24.8671C19.5895 24.769 19.5697 24.6638 19.5714 24.5578V16.8916C19.5644 16.6249 19.5252 16.36 19.4547 16.1026C19.394 15.8493 19.2975 15.6058 19.1681 15.3797C17.8151 13.0712 16.4427 10.8075 15.0508 8.58865C13.659 6.36979 12.2637 4.08667 10.8651 1.73929C10.8103 1.64645 10.7759 1.54304 10.7641 1.43589C10.7523 1.32874 10.7634 1.22031 10.7966 1.11777C10.8208 1.02154 10.8779 0.936826 10.9581 0.878413C11.0383 0.82 11.1365 0.79159 11.2355 0.798137H17.2173C17.4611 0.803966 17.6991 0.873964 17.9073 1.00108C18.1249 1.11797 18.3051 1.29381 18.4273 1.50844L22.5471 8.70027C22.5804 8.77937 22.6363 8.84688 22.7079 8.89435C22.7794 8.94183 22.8633 8.96715 22.9492 8.96715C23.035 8.96715 23.1189 8.94183 23.1905 8.89435C23.262 8.84688 23.3179 8.77937 23.3512 8.70027L27.438 1.50844C27.5602 1.29381 27.7405 1.11797 27.9581 1.00108C28.1662 0.873964 28.4042 0.803966 28.6481 0.798137H34.6983C34.7931 0.790902 34.8881 0.808923 34.9737 0.850367C35.0593 0.89181 35.1323 0.955192 35.1854 1.03406C35.2869 1.19134 35.2463 1.42726 35.0687 1.73929L26.6643 15.3467Z" fill="#28AEB9"/>
<path d="M20.3729 25.1159C20.3 25.1156 20.2278 25.1009 20.1605 25.0727C20.0932 25.0444 20.0322 25.0032 19.9808 24.9514C19.9295 24.8996 19.8888 24.8381 19.8612 24.7706C19.8336 24.7031 19.8196 24.6308 19.8199 24.5578V16.8916C19.8132 16.6033 19.7706 16.317 19.6931 16.0392C19.6284 15.7612 19.5224 15.4944 19.3785 15.2478C18.0441 12.9646 16.6565 10.6815 15.2587 8.45675C13.861 6.23198 12.4683 3.94378 11.0781 1.60739C11.0406 1.54412 11.0174 1.47346 11.0099 1.40031C11.0025 1.32716 11.011 1.25327 11.035 1.18375C11.0424 1.13803 11.0677 1.09714 11.1053 1.07004C11.1429 1.04294 11.1896 1.03183 11.2354 1.03915H17.2171C17.4175 1.04435 17.6128 1.10303 17.7829 1.20912C17.9611 1.30258 18.1096 1.44405 18.2116 1.61754L22.3313 8.8119C22.3863 8.92865 22.4733 9.02735 22.5822 9.09648C22.6911 9.16562 22.8175 9.20233 22.9465 9.20233C23.0755 9.20233 23.2019 9.16562 23.3108 9.09648C23.4197 9.02735 23.5068 8.92865 23.5617 8.8119L27.6586 1.62008C27.7579 1.44371 27.9047 1.29871 28.0823 1.20151C28.2523 1.09542 28.4476 1.03674 28.648 1.03154H34.6982C34.7514 1.02418 34.8057 1.03165 34.8549 1.05313C34.9041 1.07462 34.9465 1.10928 34.9773 1.15331C35.0103 1.20404 34.995 1.35118 34.8504 1.60232L26.4511 15.2072C26.3158 15.4612 26.2062 15.728 26.1238 16.0037C26.0343 16.2775 25.9856 16.563 25.9792 16.851V24.5502C25.9796 24.6234 25.9655 24.6959 25.9377 24.7636C25.9099 24.8313 25.869 24.8928 25.8174 24.9447C25.7658 24.9965 25.7044 25.0377 25.6369 25.0658C25.5693 25.0938 25.4969 25.1083 25.4237 25.1083L20.3729 25.1159Z" fill="#28AEB9"/>
<path d="M35.1854 1.02647C35.1323 0.947603 35.0593 0.88422 34.9737 0.842777C34.8881 0.801334 34.7931 0.783311 34.6983 0.790546H28.6481C28.4042 0.796374 28.1662 0.866375 27.9581 0.99349C27.7405 1.11038 27.5602 1.28622 27.438 1.50085L23.3462 8.69014C23.3128 8.76924 23.2569 8.83676 23.1854 8.88423C23.1139 8.9317 23.0299 8.95702 22.9441 8.95702C22.8582 8.95702 22.7743 8.9317 22.7028 8.88423C22.6313 8.83676 22.5753 8.76924 22.542 8.69014L18.4273 1.49831C18.3051 1.28368 18.1249 1.10784 17.9073 0.990953C17.6991 0.863837 17.4611 0.793839 17.2173 0.78801H11.2355C11.1365 0.781463 11.0383 0.809873 10.9581 0.868286C10.8779 0.926699 10.8208 1.01141 10.7966 1.10765C10.7634 1.21018 10.7523 1.31862 10.7641 1.42576C10.7759 1.53291 10.8103 1.63633 10.8651 1.72916C12.2553 4.08331 13.6505 6.36643 15.0508 8.57852C16.4512 10.7906 17.8236 13.0543 19.1681 15.3695C19.2975 15.5957 19.394 15.8391 19.4547 16.0925C19.5252 16.3498 19.5644 16.6147 19.5714 16.8815V24.5477C19.5697 24.6537 19.5895 24.7589 19.6296 24.857C19.6697 24.9551 19.7293 25.044 19.8048 25.1185C19.8779 25.1952 19.9662 25.2558 20.064 25.2964C20.1619 25.337 20.2671 25.3568 20.373 25.3544H25.4238C25.5297 25.3568 25.635 25.337 25.7328 25.2964C25.8307 25.2558 25.919 25.1952 25.992 25.1185C26.0683 25.0445 26.1286 24.9557 26.1692 24.8575C26.2098 24.7594 26.2298 24.6539 26.228 24.5477V16.8586C26.234 16.5957 26.2785 16.335 26.3599 16.0849C26.4367 15.8294 26.5386 15.5821 26.6643 15.3467L35.0687 1.7317C35.2463 1.41967 35.2869 1.18375 35.1854 1.02647Z" fill="#3A99A1"/>
<path d="M20.3729 25.1159C20.3 25.1156 20.2278 25.1009 20.1605 25.0727C20.0932 25.0444 20.0322 25.0032 19.9808 24.9514C19.9295 24.8996 19.8888 24.8381 19.8612 24.7706C19.8336 24.7031 19.8196 24.6308 19.8199 24.5578V16.8916C19.8132 16.6033 19.7706 16.317 19.6931 16.0392C19.6284 15.7612 19.5224 15.4944 19.3785 15.2478C18.0441 12.9646 16.6565 10.6815 15.2587 8.45675C13.861 6.23198 12.4683 3.94378 11.0781 1.60739C11.0406 1.54412 11.0174 1.47346 11.0099 1.40031C11.0025 1.32716 11.011 1.25327 11.035 1.18375C11.0424 1.13803 11.0677 1.09714 11.1053 1.07004C11.1429 1.04294 11.1896 1.03183 11.2354 1.03915H17.2171C17.4175 1.04435 17.6128 1.10303 17.7829 1.20912C17.9611 1.30258 18.1096 1.44405 18.2116 1.61754L22.3313 8.8119C22.3863 8.92865 22.4733 9.02735 22.5822 9.09648C22.6911 9.16562 22.8175 9.20233 22.9465 9.20233C23.0755 9.20233 23.2019 9.16562 23.3108 9.09648C23.4197 9.02735 23.5068 8.92865 23.5617 8.8119L27.6586 1.62008C27.7579 1.44371 27.9047 1.29871 28.0823 1.20151C28.2523 1.09542 28.4476 1.03674 28.648 1.03154H34.6982C34.7514 1.02418 34.8057 1.03165 34.8549 1.05313C34.9041 1.07462 34.9465 1.10928 34.9773 1.15331C35.0103 1.20404 34.995 1.35118 34.8504 1.60232L26.4511 15.2072C26.3158 15.4612 26.2062 15.728 26.1238 16.0037C26.0343 16.2775 25.9856 16.563 25.9792 16.851V24.5502C25.9796 24.6234 25.9655 24.6959 25.9377 24.7636C25.9099 24.8313 25.869 24.8928 25.8174 24.9447C25.7658 24.9965 25.7044 25.0377 25.6369 25.0658C25.5693 25.0938 25.4969 25.1083 25.4237 25.1083L20.3729 25.1159Z" fill="url(#paint2_linear_9_226)"/>
<path d="M13.6682 33.0967C13.4268 33.0973 13.1877 33.0503 12.9645 32.9582C12.7414 32.8662 12.5387 32.7309 12.368 32.5602C12.1973 32.3895 12.0621 32.1868 11.97 31.9637C11.8779 31.7405 11.8309 31.5014 11.8316 31.26V28.6294C11.8316 28.1423 12.0251 27.6751 12.3695 27.3307C12.7139 26.9862 13.1811 26.7927 13.6682 26.7927H20.4973C20.9842 26.7947 21.4507 26.9887 21.7955 27.3326C22.1404 27.6764 22.3356 28.1424 22.339 28.6294V31.26C22.337 31.7474 22.1421 32.2142 21.797 32.5583C21.4519 32.9024 20.9846 33.096 20.4973 33.0967H13.6682ZM13.6682 27.8455C13.4598 27.8455 13.2599 27.9279 13.1121 28.0748C12.9643 28.2216 12.8806 28.421 12.8792 28.6294V31.26C12.8812 31.4687 12.965 31.6682 13.1125 31.8157C13.26 31.9632 13.4596 32.047 13.6682 32.049H20.4973C20.6013 32.0503 20.7045 32.0303 20.8005 31.9901C20.8965 31.95 20.9832 31.8906 21.0553 31.8156C21.1296 31.7435 21.1883 31.6571 21.228 31.5616C21.2677 31.4661 21.2875 31.3635 21.2862 31.26V28.6294C21.2862 28.526 21.2658 28.4237 21.226 28.3282C21.1863 28.2328 21.1281 28.1461 21.0548 28.0733C20.9815 28.0004 20.8945 27.9428 20.7988 27.9037C20.7031 27.8646 20.6006 27.8448 20.4973 27.8455H13.6682Z" fill="#084F4F"/>
<path d="M25.4973 33.0967C25.0102 33.0967 24.543 32.9032 24.1986 32.5587C23.8541 32.2143 23.6606 31.7471 23.6606 31.26V28.6294C23.662 28.1427 23.8559 27.6763 24.2001 27.3321C24.5442 26.988 25.0106 26.7941 25.4973 26.7927H32.3263C32.8137 26.7934 33.281 26.9869 33.6261 27.3311C33.9712 27.6752 34.166 28.142 34.1681 28.6294V31.26C34.1667 31.7476 33.9721 32.2147 33.6268 32.559C33.2816 32.9033 32.8139 33.0967 32.3263 33.0967H25.4973ZM25.4973 27.8455C25.2889 27.8455 25.089 27.9279 24.9412 28.0748C24.7934 28.2216 24.7097 28.421 24.7083 28.6294V31.26C24.7103 31.4687 24.7941 31.6682 24.9416 31.8157C25.0891 31.9632 25.2887 32.047 25.4973 32.049H32.3263C32.4308 32.0506 32.5345 32.0308 32.6309 31.9906C32.7274 31.9505 32.8145 31.8909 32.887 31.8156C32.9607 31.7433 33.019 31.6568 33.0583 31.5613C33.0975 31.4658 33.1169 31.3633 33.1153 31.26V28.6294C33.117 28.5252 33.0978 28.4217 33.0588 28.3251C33.0197 28.2284 32.9617 28.1406 32.8882 28.0668C32.8146 27.993 32.727 27.9347 32.6305 27.8954C32.534 27.8561 32.4305 27.8365 32.3263 27.8379L25.4973 27.8455Z" fill="#084F4F"/>
<path d="M37.3289 33.0967C37.0875 33.097 36.8484 33.0497 36.6253 32.9576C36.4022 32.8654 36.1994 32.7302 36.0286 32.5596C35.8578 32.389 35.7223 32.1865 35.6298 31.9635C35.5373 31.7405 35.4897 31.5014 35.4897 31.26V28.6294C35.4911 28.1422 35.6854 27.6755 36.0301 27.3312C36.3748 26.987 36.8418 26.7934 37.3289 26.7927H44.1478C44.6348 26.7947 45.1013 26.9887 45.4461 27.3326C45.7909 27.6764 45.9862 28.1424 45.9896 28.6294V31.26C45.9875 31.7474 45.7927 32.2142 45.4476 32.5583C45.1025 32.9024 44.6352 33.096 44.1478 33.0967H37.3289ZM37.3289 27.8455C37.1206 27.8455 36.9207 27.9279 36.7728 28.0748C36.625 28.2216 36.5413 28.421 36.54 28.6294V31.26C36.542 31.4687 36.6257 31.6682 36.7732 31.8157C36.9208 31.9632 37.1203 32.047 37.3289 32.049H44.1478C44.3569 32.0483 44.5572 31.965 44.705 31.8172C44.8528 31.6693 44.9361 31.4691 44.9368 31.26V28.6294C44.9378 28.5254 44.9181 28.4222 44.8788 28.3259C44.8396 28.2296 44.7816 28.142 44.7081 28.0683C44.6347 27.9947 44.5473 27.9364 44.4511 27.8968C44.355 27.8572 44.2518 27.8372 44.1478 27.8379L37.3289 27.8455Z" fill="#084F4F"/>
<path d="M9.96728 29.9587C9.799 29.7849 9.597 29.6473 9.37365 29.5544C9.1503 29.4615 8.91032 29.4152 8.66844 29.4183H1.05805V27.8379H9.39396V28.5736H10.2539V26.7851H0.0078125V30.4635H8.67605C8.77982 30.4625 8.88275 30.4822 8.97879 30.5215C9.07483 30.5608 9.16204 30.6189 9.2353 30.6924C9.30857 30.7659 9.3664 30.8533 9.40541 30.9495C9.44442 31.0457 9.46381 31.1487 9.46246 31.2524C9.46246 31.4612 9.37969 31.6615 9.23228 31.8094C9.08487 31.9573 8.88485 32.0407 8.67605 32.0414H0.0078125V33.0891H8.67605C9.04041 33.0909 9.39705 32.9841 9.70048 32.7824C10.0039 32.5806 10.2404 32.2931 10.3797 31.9564C10.5191 31.6198 10.555 31.2492 10.4829 30.8921C10.4108 30.5349 10.2339 30.2073 9.97489 29.9511L9.96728 29.9587Z" fill="#084F4F"/>
<defs>
<linearGradient id="paint0_linear_9_226" x1="9.35072" y1="24.8825" x2="9.35072" y2="1.79764" gradientUnits="userSpaceOnUse">
<stop stop-color="#9AC281"/>
<stop offset="0.16" stop-color="#92C185"/>
<stop offset="0.4" stop-color="#7EBD8F"/>
<stop offset="0.7" stop-color="#5CB7A0"/>
<stop offset="1" stop-color="#31B0B5"/>
</linearGradient>
<linearGradient id="paint1_linear_9_226" x1="36.6366" y1="24.8825" x2="36.6366" y2="1.79764" gradientUnits="userSpaceOnUse">
<stop stop-color="#9AC281"/>
<stop offset="0.16" stop-color="#92C185"/>
<stop offset="0.4" stop-color="#7EBD8F"/>
<stop offset="0.7" stop-color="#5CB7A0"/>
<stop offset="1" stop-color="#31B0B5"/>
</linearGradient>
<linearGradient id="paint2_linear_9_226" x1="22.9985" y1="24.8825" x2="22.9985" y2="1.79765" gradientUnits="userSpaceOnUse">
<stop stop-color="#9AC281"/>
<stop offset="0.16" stop-color="#92C185"/>
<stop offset="0.4" stop-color="#7EBD8F"/>
<stop offset="0.7" stop-color="#5CB7A0"/>
<stop offset="1" stop-color="#31B0B5"/>
</linearGradient>
</defs>
</svg>
