<svg width="80" height="56" viewBox="0 0 80 56" fill="none" xmlns="http://www.w3.org/2000/svg">
<path d="M32.3577 27.9385C32.3469 27.6054 32.2953 27.275 32.2039 26.9545C32.1388 26.6661 32.0338 26.3881 31.892 26.1286C29.5638 22.1355 27.1741 18.1952 24.7668 14.3778C22.3596 10.5604 19.8996 6.53216 17.4967 2.46439C17.2935 2.1183 17.1654 1.73331 17.1207 1.33446C17.076 0.935603 17.1159 0.531815 17.2375 0.149355C17.2375 0.096641 17.2771 0.0527141 17.299 0H1.39692C1.02872 0.00347373 0.676791 0.152181 0.417661 0.41378C0.15853 0.675379 0.0131616 1.02871 0.013178 1.39692V9.30405C0.00841209 9.4882 0.0423091 9.6713 0.112677 9.84155C0.183044 10.0118 0.288315 10.1654 0.421709 10.2924C0.549734 10.4245 0.703516 10.529 0.873528 10.5992C1.04354 10.6695 1.22616 10.7041 1.4101 10.701H19.513C19.6972 10.6962 19.8803 10.7301 20.0505 10.8005C20.2208 10.8708 20.3743 10.9761 20.5014 11.1095C20.6335 11.2375 20.7379 11.3913 20.8082 11.5613C20.8785 11.7313 20.9131 11.914 20.9099 12.0979V14.5447C20.9131 14.7286 20.8785 14.9113 20.8082 15.0813C20.7379 15.2513 20.6335 15.4051 20.5014 15.5331C20.3743 15.6665 20.2208 15.7718 20.0505 15.8421C19.8803 15.9125 19.6972 15.9464 19.513 15.9416H3.72513C3.54136 15.9405 3.35918 15.9758 3.18917 16.0456C3.01917 16.1154 2.8647 16.2182 2.73476 16.3482C2.60481 16.4781 2.50195 16.6326 2.43216 16.8026C2.36238 16.9726 2.32704 17.1548 2.32821 17.3386V25.3687C2.32704 25.5525 2.36238 25.7346 2.43216 25.9046C2.50195 26.0746 2.60481 26.2291 2.73476 26.3591C2.8647 26.489 3.01917 26.5919 3.18917 26.6616C3.35918 26.7314 3.54136 26.7668 3.72513 26.7656H19.4998C19.684 26.7608 19.8671 26.7947 20.0373 26.8651C20.2076 26.9355 20.3612 27.0407 20.4882 27.1741C20.6203 27.3022 20.7247 27.4559 20.795 27.626C20.8653 27.796 20.8999 27.9786 20.8967 28.1625V30.359C20.8999 30.5429 20.8653 30.7255 20.795 30.8955C20.7247 31.0655 20.6203 31.2193 20.4882 31.3473C20.3612 31.4807 20.2076 31.586 20.0373 31.6564C19.8671 31.7268 19.684 31.7606 19.4998 31.7559H1.39692C1.02643 31.7559 0.671122 31.9031 0.409148 32.165C0.147174 32.427 0 32.7823 0 33.1528V41.1873C0 41.5578 0.147174 41.9131 0.409148 42.1751C0.671122 42.4371 1.02643 42.5842 1.39692 42.5842H31.0266C31.2108 42.589 31.3939 42.5551 31.5641 42.4847C31.7344 42.4144 31.888 42.3091 32.015 42.1757C32.2051 41.9914 32.3352 41.7541 32.3884 41.4948C32.3884 41.3938 32.3577 41.2927 32.3577 41.1873V27.9385Z" fill="#3A99A1"/>
<path d="M1.39692 42.1801C1.26947 42.1831 1.14278 42.1597 1.02483 42.1113C0.90688 42.0629 0.800239 41.9906 0.71164 41.899C0.620812 41.8097 0.549059 41.703 0.500732 41.5852C0.452404 41.4674 0.428509 41.341 0.430498 41.2137V33.1792C0.429917 33.0521 0.454515 32.9262 0.502877 32.8086C0.551238 32.6911 0.622406 32.5844 0.712263 32.4945C0.80212 32.4046 0.908889 32.3335 1.0264 32.2851C1.14392 32.2367 1.26985 32.2121 1.39692 32.2127H19.4998C19.74 32.2133 19.9779 32.1664 20.1998 32.0748C20.4218 31.9832 20.6235 31.8486 20.7933 31.6788C20.9631 31.509 21.0977 31.3073 21.1893 31.0853C21.281 30.8633 21.3278 30.6254 21.3273 30.3853V28.1889C21.3278 27.9487 21.281 27.7108 21.1893 27.4889C21.0977 27.2669 20.9631 27.0652 20.7933 26.8954C20.6235 26.7256 20.4218 26.591 20.1998 26.4994C19.9779 26.4078 19.74 26.3609 19.4998 26.3615H3.72513C3.59757 26.3653 3.47063 26.3423 3.35257 26.2938C3.2345 26.2454 3.12795 26.1726 3.03985 26.0803C2.94796 25.9919 2.87551 25.8853 2.8271 25.7673C2.7787 25.6493 2.7554 25.5225 2.75871 25.395V17.3473C2.75813 17.2203 2.78272 17.0943 2.83108 16.9768C2.87945 16.8593 2.95061 16.7525 3.04047 16.6627C3.13033 16.5728 3.2371 16.5017 3.35461 16.4533C3.47213 16.4049 3.59806 16.3803 3.72513 16.3809H19.4998C19.74 16.3815 19.9779 16.3346 20.1998 16.243C20.4218 16.1514 20.6235 16.0168 20.7933 15.847C20.9631 15.6772 21.0977 15.4755 21.1893 15.2535C21.281 15.0315 21.3278 14.7936 21.3273 14.5535V12.1067C21.3278 11.8665 21.281 11.6286 21.1893 11.4067C21.0977 11.1847 20.9631 10.983 20.7933 10.8132C20.6235 10.6434 20.4218 10.5088 20.1998 10.4172C19.9779 10.3255 19.74 10.2787 19.4998 10.2793H1.39692C1.26936 10.2831 1.14243 10.2601 1.02436 10.2116C0.906292 10.1632 0.799742 10.0904 0.71164 9.99811C0.619969 9.90951 0.547659 9.80288 0.49927 9.68493C0.450881 9.56698 0.427464 9.44028 0.430498 9.31283V1.4057C0.429917 1.27863 0.454515 1.1527 0.502877 1.03518C0.551238 0.917668 0.622406 0.810899 0.712263 0.721042C0.80212 0.631185 0.908889 0.560023 1.0264 0.511662C1.14392 0.4633 1.26985 0.438699 1.39692 0.43928H16.728C16.591 1.21022 16.7294 2.00478 17.1189 2.68402C19.535 6.77376 21.9818 10.7844 24.4022 14.6194C26.8227 18.4543 29.1992 22.3728 31.523 26.3571C31.6437 26.5823 31.7325 26.8233 31.7866 27.0731C31.8695 27.359 31.9167 27.6541 31.9272 27.9517V41.2269C31.9219 41.3161 31.9219 41.4056 31.9272 41.4948C31.8842 41.6474 31.8007 41.7856 31.6856 41.8946C31.5977 41.9875 31.4913 42.0609 31.3732 42.1101C31.2552 42.1593 31.1281 42.1831 31.0003 42.1801H1.39692Z" fill="url(#paint0_linear_3_380)"/>
<path d="M59.1628 11.1183C59.2915 10.9859 59.446 10.8813 59.6167 10.811C59.7875 10.7407 59.9709 10.7063 60.1555 10.7098H78.2584C78.4424 10.7129 78.625 10.6783 78.795 10.608C78.965 10.5378 79.1188 10.4333 79.2468 10.3012C79.3802 10.1742 79.4855 10.0206 79.5559 9.85035C79.6263 9.6801 79.6601 9.497 79.6554 9.31284V1.40572C79.6554 1.03523 79.5082 0.679922 79.2462 0.417948C78.9842 0.155974 78.6289 0.00879669 78.2584 0.00879669H62.3915C62.6155 0.566688 62.6639 1.37497 62.0533 2.45561L47.4558 26.0672C47.3617 26.25 47.281 26.4394 47.2142 26.6338V41.2137C47.2142 41.5842 47.3614 41.9395 47.6234 42.2015C47.8854 42.4634 48.2407 42.6106 48.6112 42.6106H78.2409C78.6114 42.6106 78.9667 42.4634 79.2287 42.2015C79.4906 41.9395 79.6378 41.5842 79.6378 41.2137V33.1792C79.6378 32.8087 79.4906 32.4534 79.2287 32.1914C78.9667 31.9294 78.6114 31.7823 78.2409 31.7823H60.1555C59.9718 31.7834 59.7896 31.7481 59.6196 31.6783C59.4496 31.6085 59.2951 31.5056 59.1652 31.3757C59.0352 31.2458 58.9324 31.0913 58.8626 30.9213C58.7928 30.7513 58.7575 30.5691 58.7586 30.3853V28.1889C58.7575 28.0051 58.7928 27.823 58.8626 27.6529C58.9324 27.4829 59.0352 27.3285 59.1652 27.1985C59.2951 27.0686 59.4496 26.9657 59.6196 26.8959C59.7896 26.8261 59.9718 26.7908 60.1555 26.792H75.9302C76.1163 26.7932 76.3006 26.757 76.4724 26.6856C76.6442 26.6142 76.7999 26.509 76.9302 26.3762C77.0605 26.2435 77.1628 26.0858 77.231 25.9128C77.2992 25.7397 77.3319 25.5547 77.3272 25.3687V17.3474C77.3283 17.1636 77.293 16.9814 77.2232 16.8114C77.1534 16.6414 77.0506 16.4869 76.9206 16.357C76.7907 16.227 76.6362 16.1242 76.4662 16.0544C76.2962 15.9846 76.114 15.9493 75.9302 15.9504H60.1555C59.9718 15.9516 59.7896 15.9163 59.6196 15.8465C59.4496 15.7767 59.2951 15.6738 59.1652 15.5439C59.0352 15.4139 58.9324 15.2595 58.8626 15.0895C58.7928 14.9195 58.7575 14.7373 58.7586 14.5535V12.1067C58.7557 11.9232 58.7899 11.741 58.8594 11.5711C58.9289 11.4012 59.0321 11.2472 59.1628 11.1183Z" fill="#3A99A1"/>
<path d="M48.6287 42.1801C48.5013 42.1831 48.3746 42.1597 48.2566 42.1113C48.1387 42.063 48.032 41.9906 47.9434 41.899C47.8513 41.8107 47.7787 41.7041 47.7303 41.5861C47.6819 41.4681 47.6587 41.3412 47.6623 41.2137V26.7173C47.7145 26.5671 47.7761 26.4204 47.8468 26.278L62.4222 2.66647C62.846 2.00056 63.0332 1.2114 62.9538 0.426117H78.2584C78.386 0.422542 78.5128 0.445711 78.6308 0.494132C78.7489 0.542553 78.8554 0.615154 78.9437 0.707259C79.0354 0.795858 79.1077 0.902496 79.1561 1.02044C79.2045 1.13839 79.2279 1.26509 79.2249 1.39254V9.29966C79.2279 9.42712 79.2045 9.55382 79.1561 9.67176C79.1077 9.78971 79.0354 9.89635 78.9437 9.98495C78.8554 10.0771 78.7489 10.1497 78.6308 10.1981C78.5128 10.2465 78.386 10.2697 78.2584 10.2661H60.1555C59.9154 10.2655 59.6775 10.3124 59.4555 10.404C59.2335 10.4956 59.0319 10.6302 58.8621 10.8C58.6922 10.9698 58.5577 11.1715 58.466 11.3935C58.3744 11.6155 58.3275 11.8534 58.3281 12.0935V14.5403C58.3275 14.7805 58.3744 15.0184 58.466 15.2403C58.5577 15.4623 58.6922 15.664 58.8621 15.8338C59.0319 16.0036 59.2335 16.1382 59.4555 16.2298C59.6775 16.3215 59.9154 16.3683 60.1555 16.3678H75.9302C76.0575 16.3658 76.1839 16.3897 76.3017 16.438C76.4195 16.4863 76.5263 16.5581 76.6155 16.6489C76.7072 16.7375 76.7795 16.8441 76.8279 16.9621C76.8763 17.08 76.8997 17.2067 76.8966 17.3342V25.3687C76.8972 25.4958 76.8726 25.6217 76.8243 25.7392C76.7759 25.8567 76.7048 25.9635 76.6149 26.0534C76.525 26.1432 76.4183 26.2144 76.3008 26.2627C76.1832 26.3111 76.0573 26.3357 75.9302 26.3351H60.1555C59.9154 26.3345 59.6775 26.3814 59.4555 26.473C59.2335 26.5647 59.0319 26.6993 58.8621 26.8691C58.6922 27.0389 58.5577 27.2406 58.466 27.4625C58.3744 27.6845 58.3275 27.9224 58.3281 28.1625V30.359C58.3275 30.5991 58.3744 30.837 58.466 31.059C58.5577 31.2809 58.6922 31.4826 58.8621 31.6524C59.0319 31.8222 59.2335 31.9568 59.4555 32.0485C59.6775 32.1401 59.9154 32.187 60.1555 32.1864H78.2584C78.386 32.1828 78.5128 32.206 78.6308 32.2544C78.7489 32.3028 78.8554 32.3754 78.9437 32.4675C79.0354 32.5561 79.1077 32.6628 79.1561 32.7807C79.2045 32.8987 79.2279 33.0254 79.2249 33.1528V41.1873C79.2254 41.3144 79.2008 41.4403 79.1525 41.5578C79.1041 41.6754 79.033 41.7821 78.9431 41.872C78.8532 41.9618 78.7465 42.033 78.629 42.0814C78.5114 42.1297 78.3855 42.1543 78.2584 42.1538L48.6287 42.1801Z" fill="url(#paint1_linear_3_380)"/>
<path d="M46.1731 25.2632C45.9555 25.6709 45.779 26.0991 45.646 26.5416C45.505 26.9747 45.428 27.426 45.4176 27.8814V41.2137C45.4207 41.3976 45.3861 41.5802 45.3158 41.7502C45.2456 41.9203 45.1411 42.074 45.009 42.2021C44.8825 42.3349 44.7296 42.4398 44.5602 42.5102C44.3907 42.5805 44.2085 42.6147 44.025 42.6106H35.2789C35.0955 42.6147 34.9132 42.5805 34.7438 42.5102C34.5743 42.4398 34.4214 42.3349 34.2949 42.2021C34.1642 42.0732 34.061 41.9192 33.9916 41.7493C33.9221 41.5794 33.8878 41.3972 33.8908 41.2137V27.9385C33.8787 27.4766 33.8108 27.0179 33.6887 26.5723C33.5835 26.1335 33.4164 25.712 33.1923 25.3204C30.8494 21.3229 28.4729 17.403 26.0627 13.5607C23.6525 9.71843 21.2364 5.76487 18.8145 1.70003C18.7197 1.53927 18.66 1.36019 18.6396 1.17465C18.6191 0.989107 18.6383 0.801339 18.6959 0.623778C18.7377 0.457129 18.8367 0.310442 18.9756 0.209291C19.1145 0.10814 19.2844 0.0589453 19.4559 0.0702823H29.8142C30.2364 0.0803757 30.6486 0.201588 31.0091 0.421708C31.3858 0.624112 31.6979 0.928608 31.9096 1.30028L39.0436 13.754C39.1013 13.891 39.1981 14.0079 39.322 14.0901C39.4458 14.1723 39.5912 14.2161 39.7398 14.2161C39.8885 14.2161 40.0338 14.1723 40.1577 14.0901C40.2815 14.0079 40.3784 13.891 40.4361 13.754L47.513 1.30028C47.7246 0.928608 48.0367 0.624112 48.4135 0.421708C48.774 0.201588 49.1861 0.0803757 49.6083 0.0702823H60.0853C60.2494 0.0577538 60.414 0.08896 60.5621 0.160725C60.7103 0.23249 60.8368 0.342247 60.9287 0.478814C61.1044 0.75117 61.0341 1.15971 60.7266 1.70003L46.1731 25.2632Z" fill="#28AEB9"/>
<path d="M35.2789 42.1801C35.1526 42.1795 35.0276 42.1541 34.9111 42.1052C34.7946 42.0563 34.6889 41.985 34.5999 41.8952C34.511 41.8055 34.4406 41.6991 34.3928 41.5822C34.345 41.4652 34.3207 41.34 34.3213 41.2137V27.9385C34.3097 27.4393 34.2359 26.9435 34.1016 26.4625C33.9897 25.981 33.8061 25.519 33.5569 25.0919C31.2463 21.1384 28.8434 17.1848 26.4229 13.3323C24.0025 9.47977 21.5908 5.51743 19.1835 1.47162C19.1187 1.36205 19.0784 1.2397 19.0655 1.11303C19.0526 0.986359 19.0674 0.8584 19.1088 0.738013C19.1218 0.658851 19.1656 0.588047 19.2306 0.541114C19.2957 0.49418 19.3767 0.474945 19.4559 0.487621H29.8142C30.1611 0.496621 30.4994 0.598238 30.7938 0.78194C31.1024 0.943783 31.3596 1.18877 31.5362 1.48919L38.6702 13.9473C38.7653 14.1495 38.916 14.3204 39.1046 14.4401C39.2932 14.5598 39.512 14.6234 39.7354 14.6234C39.9589 14.6234 40.1777 14.5598 40.3663 14.4401C40.5549 14.3204 40.7056 14.1495 40.8007 13.9473L47.8952 1.49358C48.0672 1.18818 48.3213 0.937081 48.6288 0.768762C48.9232 0.58506 49.2614 0.483443 49.6084 0.474443H60.0853C60.1774 0.46169 60.2713 0.474629 60.3566 0.511835C60.4419 0.549041 60.5152 0.609067 60.5685 0.685297C60.6256 0.773154 60.5993 1.02794 60.3489 1.46283L45.8042 25.0217C45.5699 25.4615 45.3801 25.9235 45.2375 26.401C45.0825 26.8751 44.9981 27.3695 44.9871 27.8682V41.2005C44.9877 41.3272 44.9632 41.4528 44.9151 41.57C44.867 41.6872 44.7963 41.7938 44.7069 41.8836C44.6175 41.9734 44.5112 42.0447 44.3942 42.0933C44.2772 42.1419 44.1518 42.1669 44.0251 42.1669L35.2789 42.1801Z" fill="#28AEB9"/>
<path d="M60.9287 0.465665C60.8368 0.329098 60.7103 0.219341 60.5621 0.147576C60.414 0.0758108 60.2494 0.0446014 60.0853 0.0571298H49.6083C49.1861 0.0672232 48.774 0.188439 48.4135 0.408559C48.0367 0.610963 47.7246 0.915459 47.513 1.28713L40.4273 13.7365C40.3696 13.8734 40.2727 13.9903 40.1489 14.0725C40.025 14.1548 39.8797 14.1986 39.731 14.1986C39.5824 14.1986 39.4371 14.1548 39.3132 14.0725C39.1894 13.9903 39.0925 13.8734 39.0348 13.7365L31.9096 1.28273C31.6979 0.911065 31.3858 0.606569 31.0091 0.404165C30.6486 0.184045 30.2364 0.0628328 29.8142 0.0527394H19.4559C19.2844 0.0414024 19.1145 0.0905975 18.9756 0.191749C18.8367 0.2929 18.7377 0.439587 18.6959 0.606236C18.6383 0.783796 18.6191 0.971564 18.6396 1.1571C18.66 1.34264 18.7197 1.52172 18.8145 1.68248C21.2218 5.75905 23.6379 9.71261 26.0627 13.5432C28.4876 17.3737 30.8641 21.2936 33.1923 25.3028C33.4164 25.6944 33.5835 26.116 33.6887 26.5548C33.8108 27.0004 33.8787 27.4591 33.8908 27.9209V41.1961C33.8878 41.3796 33.9221 41.5619 33.9916 41.7317C34.061 41.9016 34.1642 42.0557 34.2949 42.1845C34.4214 42.3174 34.5743 42.4223 34.7438 42.4927C34.9132 42.563 35.0955 42.5972 35.2789 42.5931H44.025C44.2085 42.5972 44.3907 42.563 44.5602 42.4927C44.7296 42.4223 44.8825 42.3174 45.009 42.1845C45.1411 42.0565 45.2456 41.9027 45.3158 41.7327C45.3861 41.5627 45.4207 41.3801 45.4176 41.1961V27.8814C45.428 27.4261 45.505 26.9747 45.646 26.5416C45.779 26.0991 45.9555 25.6709 46.1731 25.2633L60.7266 1.68688C61.0341 1.14656 61.1044 0.738021 60.9287 0.465665Z" fill="#3A99A1"/>
<path d="M35.2789 42.1801C35.1526 42.1795 35.0276 42.1541 34.9111 42.1052C34.7946 42.0563 34.6889 41.985 34.5999 41.8952C34.511 41.8055 34.4406 41.6991 34.3928 41.5822C34.345 41.4652 34.3207 41.34 34.3213 41.2137V27.9385C34.3097 27.4393 34.2359 26.9435 34.1016 26.4625C33.9897 25.981 33.8061 25.519 33.5569 25.0919C31.2463 21.1384 28.8434 17.1848 26.4229 13.3323C24.0025 9.47977 21.5908 5.51743 19.1835 1.47162C19.1187 1.36205 19.0784 1.2397 19.0655 1.11303C19.0526 0.986359 19.0674 0.8584 19.1088 0.738013C19.1218 0.658851 19.1656 0.588047 19.2306 0.541114C19.2957 0.49418 19.3767 0.474945 19.4559 0.487621H29.8142C30.1611 0.496621 30.4994 0.598238 30.7938 0.78194C31.1024 0.943783 31.3596 1.18877 31.5362 1.48919L38.6702 13.9473C38.7653 14.1495 38.916 14.3204 39.1046 14.4401C39.2932 14.5598 39.512 14.6234 39.7354 14.6234C39.9589 14.6234 40.1777 14.5598 40.3663 14.4401C40.5549 14.3204 40.7056 14.1495 40.8007 13.9473L47.8952 1.49358C48.0672 1.18818 48.3213 0.937081 48.6288 0.768762C48.9232 0.58506 49.2614 0.483443 49.6084 0.474443H60.0853C60.1774 0.46169 60.2713 0.474629 60.3566 0.511835C60.4419 0.549041 60.5152 0.609067 60.5685 0.685297C60.6256 0.773154 60.5993 1.02794 60.3489 1.46283L45.8042 25.0217C45.5699 25.4615 45.3801 25.9235 45.2375 26.401C45.0825 26.8751 44.9981 27.3695 44.9871 27.8682V41.2005C44.9877 41.3272 44.9632 41.4528 44.9151 41.57C44.867 41.6872 44.7963 41.7938 44.7069 41.8836C44.6175 41.9734 44.5112 42.0447 44.3942 42.0933C44.2772 42.1419 44.1518 42.1669 44.0251 42.1669L35.2789 42.1801Z" fill="url(#paint2_linear_3_380)"/>
<path d="M23.6687 56C23.2507 56.0011 22.8366 55.9197 22.4502 55.7603C22.0638 55.6008 21.7127 55.3666 21.4172 55.0711C21.1216 54.7755 20.8874 54.4244 20.728 54.038C20.5685 53.6516 20.4871 53.2376 20.4882 52.8196V48.2642C20.4882 47.4207 20.8233 46.6117 21.4198 46.0153C22.0162 45.4188 22.8252 45.0838 23.6687 45.0838H35.4942C36.3374 45.0872 37.1453 45.4231 37.7424 46.0186C38.3395 46.614 38.6776 47.421 38.6834 48.2642V52.8196C38.6799 53.6635 38.3425 54.4718 37.7449 55.0677C37.1473 55.6637 36.3381 55.9988 35.4942 56H23.6687ZM23.6687 46.9068C23.3078 46.9068 22.9617 47.0495 22.7057 47.3038C22.4498 47.5581 22.3048 47.9034 22.3025 48.2642V52.8196C22.3059 53.1808 22.451 53.5263 22.7064 53.7818C22.9619 54.0373 23.3074 54.1823 23.6687 54.1857H35.4942C35.6743 54.188 35.853 54.1533 36.0193 54.0838C36.1855 54.0143 36.3357 53.9114 36.4606 53.7816C36.5891 53.6568 36.6908 53.5072 36.7596 53.3418C36.8283 53.1764 36.8626 52.9987 36.8604 52.8196V48.2642C36.8604 48.0852 36.825 47.908 36.7562 47.7427C36.6874 47.5774 36.5867 47.4274 36.4597 47.3012C36.3327 47.1751 36.182 47.0753 36.0163 47.0076C35.8506 46.9399 35.6732 46.9056 35.4942 46.9068H23.6687Z" fill="#084F4F"/>
<path d="M44.1525 56C43.309 56 42.5 55.6649 41.9036 55.0685C41.3071 54.472 40.972 53.6631 40.972 52.8196V48.2642C40.9744 47.4214 41.3102 46.6138 41.9061 46.0179C42.5021 45.4219 43.3097 45.0861 44.1525 45.0838H55.978C56.8219 45.0849 57.6311 45.4201 58.2287 46.016C58.8263 46.612 59.1637 47.4202 59.1672 48.2642V52.8196C59.1649 53.6639 58.8278 54.4728 58.23 55.069C57.6322 55.6652 56.8223 56 55.978 56H44.1525ZM44.1525 46.9068C43.7917 46.9068 43.4455 47.0495 43.1895 47.3038C42.9336 47.5581 42.7886 47.9034 42.7863 48.2642V52.8196C42.7897 53.1808 42.9348 53.5263 43.1902 53.7818C43.4457 54.0373 43.7912 54.1823 44.1525 54.1857H55.978C56.1589 54.1886 56.3384 54.1542 56.5055 54.0847C56.6725 54.0152 56.8234 53.912 56.9488 53.7816C57.0765 53.6565 57.1774 53.5066 57.2454 53.3412C57.3134 53.1759 57.347 52.9984 57.3442 52.8196V48.2642C57.3471 48.0838 57.3138 47.9046 57.2463 47.7372C57.1787 47.5699 57.0783 47.4178 56.9509 47.29C56.8235 47.1622 56.6717 47.0613 56.5046 46.9932C56.3375 46.9251 56.1584 46.8912 55.978 46.8936L44.1525 46.9068Z" fill="#084F4F"/>
<path d="M64.6407 56C64.2227 56.0006 63.8086 55.9187 63.4222 55.7592C63.0359 55.5996 62.6847 55.3654 62.3889 55.07C62.0932 54.7746 61.8585 54.4238 61.6984 54.0377C61.5383 53.6515 61.4559 53.2376 61.4559 52.8196V48.2642C61.4582 47.4206 61.7946 46.6124 62.3915 46.0163C62.9884 45.4202 63.7971 45.0849 64.6407 45.0838H76.4486C77.2919 45.0872 78.0998 45.4231 78.6968 46.0186C79.2939 46.614 79.6321 47.421 79.6379 48.2642V52.8196C79.6344 53.6635 79.297 54.4718 78.6994 55.0677C78.1018 55.6637 77.2926 55.9988 76.4486 56H64.6407ZM64.6407 46.9068C64.2799 46.9068 63.9337 47.0495 63.6778 47.3038C63.4218 47.5581 63.2768 47.9034 63.2745 48.2642V52.8196C63.278 53.1808 63.423 53.5263 63.6784 53.7818C63.9339 54.0373 64.2794 54.1823 64.6407 54.1857H76.4486C76.8106 54.1846 77.1574 54.0403 77.4134 53.7843C77.6694 53.5284 77.8137 53.1815 77.8148 52.8196V48.2642C77.8166 48.0841 77.7825 47.9054 77.7145 47.7386C77.6465 47.5719 77.546 47.4203 77.4189 47.2927C77.2917 47.1651 77.1404 47.0642 76.9739 46.9956C76.8073 46.9271 76.6288 46.8924 76.4486 46.8936L64.6407 46.9068Z" fill="#084F4F"/>
<path d="M17.2595 50.5661C16.9681 50.2651 16.6183 50.0269 16.2315 49.866C15.8448 49.7051 15.4292 49.6249 15.0103 49.6304H1.83182V46.8936H16.2667V48.1676H17.7559V45.0706H0.0131836V51.4402H15.0235C15.2032 51.4385 15.3815 51.4726 15.5478 51.5407C15.7141 51.6088 15.8651 51.7094 15.992 51.8367C16.1188 51.964 16.219 52.1153 16.2865 52.2819C16.3541 52.4484 16.3877 52.6267 16.3853 52.8064C16.3853 53.168 16.242 53.5148 15.9867 53.7709C15.7315 54.027 15.3851 54.1714 15.0235 54.1726H0.0131836V55.9868H15.0235C15.6545 55.9899 16.272 55.805 16.7975 55.4557C17.3229 55.1064 17.7324 54.6085 17.9737 54.0255C18.215 53.4425 18.2772 52.8008 18.1523 52.1824C18.0275 51.5639 17.7212 50.9966 17.2727 50.5529L17.2595 50.5661Z" fill="#084F4F"/>
<defs>
<linearGradient id="paint0_linear_3_380" x1="16.192" y1="41.776" x2="16.192" y2="1.80106" gradientUnits="userSpaceOnUse">
<stop stop-color="#9AC281"/>
<stop offset="0.16" stop-color="#92C185"/>
<stop offset="0.4" stop-color="#7EBD8F"/>
<stop offset="0.7" stop-color="#5CB7A0"/>
<stop offset="1" stop-color="#31B0B5"/>
</linearGradient>
<linearGradient id="paint1_linear_3_380" x1="63.4414" y1="41.776" x2="63.4414" y2="1.80108" gradientUnits="userSpaceOnUse">
<stop stop-color="#9AC281"/>
<stop offset="0.16" stop-color="#92C185"/>
<stop offset="0.4" stop-color="#7EBD8F"/>
<stop offset="0.7" stop-color="#5CB7A0"/>
<stop offset="1" stop-color="#31B0B5"/>
</linearGradient>
<linearGradient id="paint2_linear_3_380" x1="39.8255" y1="41.776" x2="39.8255" y2="1.80108" gradientUnits="userSpaceOnUse">
<stop stop-color="#9AC281"/>
<stop offset="0.16" stop-color="#92C185"/>
<stop offset="0.4" stop-color="#7EBD8F"/>
<stop offset="0.7" stop-color="#5CB7A0"/>
<stop offset="1" stop-color="#31B0B5"/>
</linearGradient>
</defs>
</svg>
