<svg width="20" height="20" viewBox="0 0 20 20" fill="none" xmlns="http://www.w3.org/2000/svg">
<g clip-path="url(#clip0_3_122)">
<mask id="mask0_3_122" style="mask-type:luminance" maskUnits="userSpaceOnUse" x="0" y="0" width="20" height="20">
<path d="M20 0H0V20H20V0Z" fill="white"/>
</mask>
<g mask="url(#mask0_3_122)">
<path d="M14.5417 18.9583C13.6 18.9583 12.6083 18.7333 11.5833 18.3C10.5833 17.875 9.57499 17.2917 8.59166 16.5833C7.61666 15.8667 6.67499 15.0667 5.78332 14.1917C4.89999 13.3 4.09999 12.3583 3.39166 11.3917C2.67499 10.3917 2.09999 9.39166 1.69166 8.42499C1.25832 7.39166 1.04166 6.39166 1.04166 5.44999C1.04166 4.79999 1.15832 4.18332 1.38332 3.60832C1.61666 3.01666 1.99166 2.46666 2.49999 1.99166C3.14166 1.35832 3.87499 1.04166 4.65832 1.04166C4.98332 1.04166 5.31666 1.11666 5.59999 1.24999C5.92499 1.39999 6.19999 1.62499 6.39999 1.92499L8.33332 4.64999C8.50832 4.89166 8.64166 5.12499 8.73332 5.35832C8.84166 5.60832 8.89999 5.85832 8.89999 6.09999C8.89999 6.41666 8.80832 6.72499 8.63332 7.01666C8.50832 7.24166 8.31666 7.48332 8.07499 7.72499L7.50832 8.31666C7.51666 8.34166 7.52499 8.35832 7.53332 8.37499C7.63332 8.54999 7.83332 8.84999 8.21666 9.29999C8.62499 9.76666 9.00832 10.1917 9.39166 10.5833C9.88332 11.0667 10.2917 11.45 10.675 11.7667C11.15 12.1667 11.4583 12.3667 11.6417 12.4583L11.625 12.5L12.2333 11.9C12.4917 11.6417 12.7417 11.45 12.9833 11.325C13.4417 11.0417 14.025 10.9917 14.6083 11.2333C14.825 11.325 15.0583 11.45 15.3083 11.625L18.075 13.5917C18.3833 13.8 18.6083 14.0667 18.7417 14.3833C18.8667 14.7 18.925 14.9917 18.925 15.2833C18.925 15.6833 18.8333 16.0833 18.6583 16.4583C18.4833 16.8333 18.2667 17.1583 17.9917 17.4583C17.5167 17.9833 17 18.3583 16.4 18.6C15.825 18.8333 15.2 18.9583 14.5417 18.9583ZM4.65832 2.29166C4.19999 2.29166 3.77499 2.49166 3.36666 2.89166C2.98332 3.24999 2.71666 3.64166 2.54999 4.06666C2.37499 4.49999 2.29166 4.95832 2.29166 5.44999C2.29166 6.22499 2.47499 7.06666 2.84166 7.93332C3.21666 8.81666 3.74166 9.73332 4.40832 10.65C5.07499 11.5667 5.83332 12.4583 6.66666 13.3C7.49999 14.125 8.39999 14.8917 9.32499 15.5667C10.225 16.225 11.15 16.7583 12.0667 17.1417C13.4917 17.75 14.825 17.8917 15.925 17.4333C16.35 17.2583 16.725 16.9917 17.0667 16.6083C17.2583 16.4 17.4083 16.175 17.5333 15.9083C17.6333 15.7 17.6833 15.4833 17.6833 15.2667C17.6833 15.1333 17.6583 15 17.5917 14.85C17.5667 14.8 17.5167 14.7083 17.3583 14.6L14.5917 12.6333C14.425 12.5167 14.275 12.4333 14.1333 12.375C13.95 12.3 13.875 12.225 13.5917 12.4C13.425 12.4833 13.275 12.6083 13.1083 12.775L12.475 13.4C12.15 13.7167 11.65 13.7917 11.2667 13.65L11.0417 13.55C10.7 13.3667 10.3 13.0833 9.85832 12.7083C9.45832 12.3667 9.02499 11.9667 8.49999 11.45C8.09166 11.0333 7.68332 10.5917 7.25832 10.1C6.86666 9.64166 6.58332 9.24999 6.40832 8.92499L6.30832 8.67499C6.25832 8.48332 6.24166 8.37499 6.24166 8.25832C6.24166 7.95832 6.34999 7.69166 6.55832 7.48332L7.18332 6.83332C7.34999 6.66666 7.47499 6.50832 7.55832 6.36666C7.62499 6.25832 7.64999 6.16666 7.64999 6.08332C7.64999 6.01666 7.62499 5.91666 7.58332 5.81666C7.52499 5.68332 7.43332 5.53332 7.31666 5.37499L5.38332 2.64166C5.29999 2.52499 5.19999 2.44166 5.07499 2.38332C4.94166 2.32499 4.79999 2.29166 4.65832 2.29166ZM11.625 12.5083L11.4917 13.075L11.7167 12.4917C11.675 12.4833 11.6417 12.4917 11.625 12.5083Z" fill="black"/>
</g>
</g>
<defs>
<clipPath id="clip0_3_122">
<rect width="20" height="20" fill="white"/>
</clipPath>
</defs>
</svg>
