<svg width="20" height="20" viewBox="0 0 20 20" fill="none" xmlns="http://www.w3.org/2000/svg">
<g opacity="0.3" clip-path="url(#clip0_77_775)">
<mask id="mask0_77_775" style="mask-type:luminance" maskUnits="userSpaceOnUse" x="0" y="0" width="20" height="20">
<path d="M20 0H0V20H20V0Z" fill="white"/>
</mask>
<g mask="url(#mask0_77_775)">
<path d="M10.0001 1.66667C5.40008 1.66667 1.66675 5.40001 1.66675 10C1.66675 14.6 5.40008 18.3333 10.0001 18.3333C14.6001 18.3333 18.3334 14.6 18.3334 10C18.3334 5.40001 14.6001 1.66667 10.0001 1.66667ZM14.1667 14.5583C12.7417 14.5583 11.4084 13.9417 10.3417 12.8C9.13341 13.8917 7.55841 14.5583 5.83341 14.5583C5.49175 14.5583 5.20841 14.275 5.20841 13.9333C5.20841 13.5917 5.49175 13.3083 5.83341 13.3083C8.72508 13.3083 11.1167 11.0167 11.4251 8.08334H10.0001H5.84175C5.50008 8.08334 5.21675 7.8 5.21675 7.45834C5.21675 7.11667 5.50008 6.84167 5.84175 6.84167H9.37508V6.06667C9.37508 5.72501 9.65841 5.44167 10.0001 5.44167C10.3417 5.44167 10.6251 5.72501 10.6251 6.06667V6.84167H12.0334C12.0501 6.84167 12.0667 6.83334 12.0834 6.83334C12.1001 6.83334 12.1167 6.84167 12.1334 6.84167H14.1584C14.5001 6.84167 14.7834 7.125 14.7834 7.46667C14.7834 7.80834 14.5001 8.09167 14.1584 8.09167H12.6751C12.5501 9.51667 12.0167 10.825 11.2001 11.8917C12.0334 12.8167 13.0751 13.3167 14.1667 13.3167C14.5084 13.3167 14.7917 13.6 14.7917 13.9417C14.7917 14.2833 14.5084 14.5583 14.1667 14.5583Z" fill="black"/>
</g>
</g>
<defs>
<clipPath id="clip0_77_775">
<rect width="20" height="20" fill="white"/>
</clipPath>
</defs>
</svg>
