<svg width="20" height="20" viewBox="0 0 20 20" fill="none" xmlns="http://www.w3.org/2000/svg">
<g opacity="0.3">
<path d="M5.0744 12.4993C4.75906 11.7905 4.58325 11.0019 4.58325 10.1709C4.58325 7.08461 7.00838 4.58267 9.99992 4.58267C12.9915 4.58267 15.4166 7.08461 15.4166 10.1709C15.4166 11.0019 15.2408 11.7905 14.9254 12.4993" stroke="black" stroke-width="1.25" stroke-linecap="round"/>
<path d="M10 1.66602V2.49935" stroke="black" stroke-width="1.25" stroke-linecap="round" stroke-linejoin="round"/>
<path d="M18.3333 9.99933H17.5" stroke="black" stroke-width="1.25" stroke-linecap="round" stroke-linejoin="round"/>
<path d="M2.50008 9.99933H1.66675" stroke="black" stroke-width="1.25" stroke-linecap="round" stroke-linejoin="round"/>
<path d="M15.892 4.1066L15.3027 4.69586" stroke="black" stroke-width="1.25" stroke-linecap="round" stroke-linejoin="round"/>
<path d="M4.69741 4.69668L4.10815 4.10742" stroke="black" stroke-width="1.25" stroke-linecap="round" stroke-linejoin="round"/>
<path d="M12.0974 16.088C12.9394 15.8157 13.2771 15.045 13.3721 14.2698C13.4004 14.0382 13.2099 13.8462 12.9766 13.8462L7.06396 13.8463C6.82263 13.8463 6.62882 14.0512 6.65763 14.2907C6.75067 15.0644 6.98551 15.6296 7.8778 16.088M12.0974 16.088C12.0974 16.088 8.02468 16.088 7.8778 16.088H12.0974ZM12.0974 16.088C11.9962 17.7088 11.5281 18.3507 10.0056 18.3327C8.37709 18.3628 8.00245 17.5694 7.8778 16.088" fill="black"/>
<path d="M12.0974 16.088C12.9394 15.8157 13.2771 15.045 13.3721 14.2698C13.4004 14.0382 13.2099 13.8462 12.9766 13.8462L7.06396 13.8463C6.82263 13.8463 6.62882 14.0512 6.65763 14.2907C6.75067 15.0644 6.98551 15.6296 7.8778 16.088M12.0974 16.088C12.0974 16.088 8.02468 16.088 7.8778 16.088M12.0974 16.088C11.9962 17.7088 11.5281 18.3507 10.0056 18.3327C8.37709 18.3628 8.00245 17.5694 7.8778 16.088" stroke="black" stroke-width="1.25" stroke-linecap="round" stroke-linejoin="round"/>
</g>
</svg>
