<svg width="20" height="20" viewBox="0 0 20 20" fill="none" xmlns="http://www.w3.org/2000/svg">
<path d="M12.0758 12.9167H12.0833M7.91666 12.9167H7.92413" stroke="black" stroke-width="1.66667" stroke-linecap="round" stroke-linejoin="round"/>
<path d="M3.55652 15.7039C3.74392 17.0958 4.89679 18.1862 6.29973 18.2507C7.48024 18.305 8.67943 18.3333 10 18.3333C11.3206 18.3333 12.5198 18.305 13.7003 18.2507C15.1033 18.1862 16.2561 17.0958 16.4435 15.7039C16.5658 14.7956 16.6667 13.8647 16.6667 12.9167C16.6667 11.9687 16.5658 11.0378 16.4435 10.1294C16.2561 8.7375 15.1033 7.64707 13.7003 7.58257C12.5198 7.52831 11.3206 7.5 10 7.5C8.67943 7.5 7.48024 7.52831 6.29973 7.58257C4.89679 7.64707 3.74392 8.7375 3.55652 10.1294C3.43422 11.0378 3.33334 11.9687 3.33334 12.9167C3.33334 13.8647 3.43422 14.7956 3.55652 15.7039Z" stroke="black" stroke-width="1.25"/>
<path d="M6.25 7.49999V5.41666C6.25 3.34559 7.92893 1.66666 10 1.66666C12.0711 1.66666 13.75 3.34559 13.75 5.41666V7.49999" stroke="black" stroke-width="1.25" stroke-linecap="round" stroke-linejoin="round"/>
</svg>
